<svg id="Слой_1" data-name="Слой 1" xmlns="http://www.w3.org/2000/svg" viewBox="0 0 27.90013 32.41895"><defs><style>.cls-1{fill:#8c9faa;}</style></defs><title>b-grey</title><path class="cls-1" d="M374.43636,450.999a25.33242,25.33242,0,0,1-7.9663,1.29883q-8.44776,0-12.74366-4.5127a15.556,15.556,0,0,1-4.2959-11.15527,16.67584,16.67584,0,0,1,4.66895-11.73242q4.66919-5.01857,12.94824-5.01856a22.316,22.316,0,0,1,5.65576.69824l-.60156,3.99512a28.61308,28.61308,0,0,0-6.40185-.96289q-5.825,0-8.917,3.52637a12.78864,12.78864,0,0,0-3.09277,8.748,13.32194,13.32194,0,0,0,3.54981,9.19434q3.55,3.94776,10.02441,3.94726a25.764,25.764,0,0,0,3.5376-.36132,36.49688,36.49688,0,0,1-.40869-5.82422,43.63793,43.63793,0,0,0-.33741-5.46387h4.38037q-.19261,3.17724-.19238,6.71484Q374.244,445.60838,374.43636,450.999Z" transform="translate(-348.44221 -419.87889)"/><rect class="cls-1" y="20.1442" width="27.90013" height="3.25502"/></svg>