<?xml version="1.0" encoding="utf-8"?>
<!-- Generator: Adobe Illustrator 24.0.2, SVG Export Plug-In . SVG Version: 6.00 Build 0)  -->
<svg version="1.1" id="Слой_1" xmlns="http://www.w3.org/2000/svg" xmlns:xlink="http://www.w3.org/1999/xlink" x="0px" y="0px"
	 viewBox="0 0 52 57" style="enable-background:new 0 0 52 57;" xml:space="preserve">
<style type="text/css">
	.st0{fill:#E23B00;}
	.st1{fill-rule:evenodd;clip-rule:evenodd;fill:#E23B00;}
</style>
<g>
	<g>
		<g>
			<path id="b_17_" class="st0" d="M36.5,5h-18c-3.2,0-6,2.9-6,5.9l-1.7,0C7.6,11,5,13.8,5,16.9v29.6c0,3.1,2.8,5.9,6,5.9h22.5
				c3.2,0,6-2.9,6-5.9H41c3.2,0,6-2.9,6-5.9V16.9L36.5,5z M33.5,49.5H11c-1.6,0-3-1.5-3-3V16.9c0-1.5,1.3-2.9,2.9-2.9l1.6,0v26.7
				c0,3,2.8,5.9,6,5.9h18C36.5,48,35.1,49.5,33.5,49.5z M44,40.6c0,1.5-1.4,3-3,3H18.5c-1.6,0-3-1.5-3-3V10.9c0-1.5,1.4-3,3-3h15
				c0,3.4,0,6,0,6c0,3.1,2.8,5.9,6,5.9H44V40.6z M39.5,16.9c-1.6,0-3-2.9-3-4.4V8v1.8l6.3,7C42.8,16.9,39.5,16.9,39.5,16.9z
				 M36.5,25.8H23c-0.8,0-1.5,0.7-1.5,1.5s0.7,1.5,1.5,1.5h13.5c0.8,0,1.5-0.7,1.5-1.5C38,26.4,37.3,25.8,36.5,25.8
				C36.5,25.8,36.5,25.8,36.5,25.8z M36.5,33.2H23c-0.8,0-1.5,0.7-1.5,1.5s0.7,1.5,1.5,1.5h13.5c0.8,0,1.5-0.7,1.5-1.5
				C38,33.8,37.3,33.2,36.5,33.2C36.5,33.2,36.5,33.2,36.5,33.2z"/>
		</g>
		<g>
			<path id="b_16_" class="st1" d="M36.5,5h-18c-3.2,0-6,2.9-6,5.9l-1.7,0C7.6,11,5,13.8,5,16.9v29.6c0,3.1,2.8,5.9,6,5.9h22.5
				c3.2,0,6-2.9,6-5.9H41c3.2,0,6-2.9,6-5.9V16.9L36.5,5z M33.5,49.5H11c-1.6,0-3-1.5-3-3V16.9c0-1.5,1.3-2.9,2.9-2.9l1.6,0v26.7
				c0,3,2.8,5.9,6,5.9h18C36.5,48,35.1,49.5,33.5,49.5z M44,40.6c0,1.5-1.4,3-3,3H18.5c-1.6,0-3-1.5-3-3V10.9c0-1.5,1.4-3,3-3h15
				c0,3.4,0,6,0,6c0,3.1,2.8,5.9,6,5.9H44V40.6z M39.5,16.9c-1.6,0-3-2.9-3-4.4V8v1.8l6.3,7C42.8,16.9,39.5,16.9,39.5,16.9z
				 M36.5,25.8H23c-0.8,0-1.5,0.7-1.5,1.5s0.7,1.5,1.5,1.5h13.5c0.8,0,1.5-0.7,1.5-1.5C38,26.4,37.3,25.8,36.5,25.8
				C36.5,25.8,36.5,25.8,36.5,25.8z M36.5,33.2H23c-0.8,0-1.5,0.7-1.5,1.5s0.7,1.5,1.5,1.5h13.5c0.8,0,1.5-0.7,1.5-1.5
				C38,33.8,37.3,33.2,36.5,33.2C36.5,33.2,36.5,33.2,36.5,33.2z"/>
		</g>
	</g>
</g>
</svg>
