<?xml version="1.0" encoding="utf-8"?>
<!-- Generator: Adobe Illustrator 24.0.2, SVG Export Plug-In . SVG Version: 6.00 Build 0)  -->
<svg version="1.1" id="Слой_1" xmlns="http://www.w3.org/2000/svg" xmlns:xlink="http://www.w3.org/1999/xlink" x="0px" y="0px"
	 viewBox="0 0 74 53" style="enable-background:new 0 0 74 53;" xml:space="preserve">
<style type="text/css">
	.st0{fill:#E23B00;}
	.st1{fill-rule:evenodd;clip-rule:evenodd;fill:#E23B00;}
</style>
<g>
	<g>
		<g>
			<g>
				<path id="b_17_" class="st0" d="M68.4,17.5C59.9,9.4,48.8,5,37,5h0C25.2,5,14.1,9.4,5.6,17.5c-0.8,0.8-0.8,2-0.1,2.8
					C6,20.6,6.5,20.8,7,20.8c0.5,0,1-0.2,1.4-0.6C16.1,13,26.3,8.9,37,8.9s20.9,4,28.6,11.4c0.8,0.8,2.1,0.7,2.8,0
					C69.2,19.5,69.2,18.2,68.4,17.5C68.4,17.5,68.4,17.5,68.4,17.5z"/>
			</g>
			<g>
				<path id="b_16_" class="st1" d="M68.4,17.5C59.9,9.4,48.8,5,37,5h0C25.2,5,14.1,9.4,5.6,17.5c-0.8,0.8-0.8,2-0.1,2.8
					C6,20.6,6.5,20.8,7,20.8c0.5,0,1-0.2,1.4-0.6C16.1,13,26.3,8.9,37,8.9s20.9,4,28.6,11.4c0.8,0.8,2.1,0.7,2.8,0
					C69.2,19.5,69.2,18.2,68.4,17.5C68.4,17.5,68.4,17.5,68.4,17.5z"/>
			</g>
		</g>
		<g>
			<g>
				<path id="d_17_" class="st0" d="M36.7,19c-13.8,0-24.2,9.1-28,13c-0.7,0.7-0.7,1.9,0,2.7c3.8,3.9,14.2,13,28,13
					c13.8,0,24.2-9.1,28-13c0.7-0.7,0.7-1.9,0-2.7C60.9,28.1,50.5,19,36.7,19L36.7,19z M23.9,25.8c-1.4,2.3-2.1,5-2.1,7.7
					c0,2.6,0.6,5,1.8,7.2c-4.7-2.2-8.4-5.2-10.7-7.4C15.3,31.1,19.1,28.1,23.9,25.8z M31.6,43.3c-3.6-1.9-5.8-5.6-5.8-9.8
					c0-4.8,2.9-8.9,7.3-10.4c1.2-0.2,2.4-0.2,3.6-0.2c0.9,0,1.8,0,2.7,0.1c4.5,1.4,7.6,5.7,7.6,10.5c0,4.2-2.4,8.1-6.1,9.9
					c-1.4,0.2-2.8,0.3-4.3,0.3C35,43.8,33.3,43.6,31.6,43.3z M49,41.1c1.3-2.3,2-4.9,2-7.5c0-2.9-0.8-5.7-2.4-8.1
					c5.2,2.3,9.3,5.5,11.8,7.9C58,35.6,54,38.8,49,41.1z"/>
			</g>
			<g>
				<path id="d_16_" class="st1" d="M36.7,19c-13.8,0-24.2,9.1-28,13c-0.7,0.7-0.7,1.9,0,2.7c3.8,3.9,14.2,13,28,13
					c13.8,0,24.2-9.1,28-13c0.7-0.7,0.7-1.9,0-2.7C60.9,28.1,50.5,19,36.7,19L36.7,19z M23.9,25.8c-1.4,2.3-2.1,5-2.1,7.7
					c0,2.6,0.6,5,1.8,7.2c-4.7-2.2-8.4-5.2-10.7-7.4C15.3,31.1,19.1,28.1,23.9,25.8z M31.6,43.3c-3.6-1.9-5.8-5.6-5.8-9.8
					c0-4.8,2.9-8.9,7.3-10.4c1.2-0.2,2.4-0.2,3.6-0.2c0.9,0,1.8,0,2.7,0.1c4.5,1.4,7.6,5.7,7.6,10.5c0,4.2-2.4,8.1-6.1,9.9
					c-1.4,0.2-2.8,0.3-4.3,0.3C35,43.8,33.3,43.6,31.6,43.3z M49,41.1c1.3-2.3,2-4.9,2-7.5c0-2.9-0.8-5.7-2.4-8.1
					c5.2,2.3,9.3,5.5,11.8,7.9C58,35.6,54,38.8,49,41.1z"/>
			</g>
		</g>
		<g>
			<g>
				<path id="f_17_" class="st0" d="M41.7,33.6c-2.7,0-5-2.2-5-4.9c-2.7,0-5,2.2-5,4.9c0,2.7,2.2,4.9,5,4.9
					C39.4,38.5,41.7,36.3,41.7,33.6z"/>
			</g>
			<g>
				<path id="f_16_" class="st1" d="M41.7,33.6c-2.7,0-5-2.2-5-4.9c-2.7,0-5,2.2-5,4.9c0,2.7,2.2,4.9,5,4.9
					C39.4,38.5,41.7,36.3,41.7,33.6z"/>
			</g>
		</g>
	</g>
</g>
</svg>
