<?xml version="1.0" encoding="utf-8"?>
<!-- Generator: Adobe Illustrator 22.0.1, SVG Export Plug-In . SVG Version: 6.00 Build 0)  -->
<svg version="1.1" id="Слой_1" xmlns="http://www.w3.org/2000/svg" xmlns:xlink="http://www.w3.org/1999/xlink" x="0px" y="0px"
	 viewBox="0 0 180 80" style="enable-background:new 0 0 180 80;" xml:space="preserve">
<style type="text/css">
	.st0{fill-rule:evenodd;clip-rule:evenodd;fill:url(#SVGID_1_);}
	.st1{fill-rule:evenodd;clip-rule:evenodd;fill:url(#SVGID_2_);}
	.st2{fill-rule:evenodd;clip-rule:evenodd;fill:url(#SVGID_3_);}
	.st3{fill-rule:evenodd;clip-rule:evenodd;fill:url(#SVGID_4_);}
	.st4{fill-rule:evenodd;clip-rule:evenodd;}
	.st5{fill-rule:evenodd;clip-rule:evenodd;fill:url(#SVGID_5_);}
	.st6{fill-rule:evenodd;clip-rule:evenodd;fill:url(#SVGID_6_);}
	.st7{fill-rule:evenodd;clip-rule:evenodd;fill:url(#SVGID_7_);}
	.st8{fill-rule:evenodd;clip-rule:evenodd;fill:url(#SVGID_8_);}
	.st9{fill-rule:evenodd;clip-rule:evenodd;fill:url(#SVGID_9_);}
	.st10{fill-rule:evenodd;clip-rule:evenodd;fill:url(#SVGID_10_);}
	.st11{fill-rule:evenodd;clip-rule:evenodd;fill:url(#SVGID_11_);}
	.st12{fill-rule:evenodd;clip-rule:evenodd;fill:url(#SVGID_12_);}
	.st13{fill-rule:evenodd;clip-rule:evenodd;fill:url(#SVGID_13_);}
	.st14{fill-rule:evenodd;clip-rule:evenodd;fill:url(#SVGID_14_);}
	.st15{fill-rule:evenodd;clip-rule:evenodd;fill:url(#SVGID_15_);}
	.st16{fill-rule:evenodd;clip-rule:evenodd;fill:url(#SVGID_16_);}
	.st17{fill-rule:evenodd;clip-rule:evenodd;fill:url(#SVGID_17_);}
	.st18{fill-rule:evenodd;clip-rule:evenodd;fill:url(#SVGID_18_);}
	.st19{fill-rule:evenodd;clip-rule:evenodd;fill:#E2E2E2;}
	.st20{fill-rule:evenodd;clip-rule:evenodd;fill:url(#SVGID_19_);}
	.st21{fill-rule:evenodd;clip-rule:evenodd;fill:url(#SVGID_20_);}
	.st22{fill-rule:evenodd;clip-rule:evenodd;fill:url(#SVGID_21_);}
	.st23{fill-rule:evenodd;clip-rule:evenodd;fill:url(#SVGID_22_);}
	.st24{fill-rule:evenodd;clip-rule:evenodd;fill:url(#SVGID_23_);}
	.st25{fill-rule:evenodd;clip-rule:evenodd;fill:url(#SVGID_24_);}
	.st26{fill-rule:evenodd;clip-rule:evenodd;fill:url(#SVGID_25_);}
	.st27{fill-rule:evenodd;clip-rule:evenodd;fill:url(#SVGID_26_);}
	.st28{fill-rule:evenodd;clip-rule:evenodd;fill:url(#SVGID_27_);}
	.st29{fill-rule:evenodd;clip-rule:evenodd;fill:url(#SVGID_28_);}
	.st30{fill-rule:evenodd;clip-rule:evenodd;fill:url(#SVGID_29_);}
	.st31{fill-rule:evenodd;clip-rule:evenodd;fill:url(#SVGID_30_);}
	.st32{fill-rule:evenodd;clip-rule:evenodd;fill:url(#SVGID_31_);}
	.st33{fill-rule:evenodd;clip-rule:evenodd;fill:url(#SVGID_32_);}
	.st34{fill-rule:evenodd;clip-rule:evenodd;fill:url(#SVGID_33_);}
	.st35{fill-rule:evenodd;clip-rule:evenodd;fill:url(#SVGID_34_);}
	.st36{fill-rule:evenodd;clip-rule:evenodd;fill:url(#SVGID_35_);}
	.st37{fill-rule:evenodd;clip-rule:evenodd;fill:url(#SVGID_36_);}
	.st38{fill-rule:evenodd;clip-rule:evenodd;fill:url(#SVGID_37_);}
	.st39{fill-rule:evenodd;clip-rule:evenodd;fill:url(#SVGID_38_);}
	.st40{fill-rule:evenodd;clip-rule:evenodd;fill:url(#SVGID_39_);}
	.st41{fill-rule:evenodd;clip-rule:evenodd;fill:url(#SVGID_40_);}
	.st42{fill-rule:evenodd;clip-rule:evenodd;fill:#C9C8C8;}
	.st43{fill-rule:evenodd;clip-rule:evenodd;fill:url(#SVGID_41_);}
	.st44{fill-rule:evenodd;clip-rule:evenodd;fill:url(#SVGID_42_);}
	.st45{fill-rule:evenodd;clip-rule:evenodd;fill:url(#SVGID_43_);}
	.st46{fill-rule:evenodd;clip-rule:evenodd;fill:url(#SVGID_44_);}
	.st47{fill-rule:evenodd;clip-rule:evenodd;fill:url(#SVGID_45_);}
	.st48{fill-rule:evenodd;clip-rule:evenodd;fill:url(#SVGID_46_);}
	.st49{fill-rule:evenodd;clip-rule:evenodd;fill:url(#SVGID_47_);}
	.st50{fill-rule:evenodd;clip-rule:evenodd;fill:url(#SVGID_48_);}
	.st51{fill-rule:evenodd;clip-rule:evenodd;fill:url(#SVGID_49_);}
	.st52{fill-rule:evenodd;clip-rule:evenodd;fill:url(#SVGID_50_);}
	.st53{fill-rule:evenodd;clip-rule:evenodd;fill:url(#SVGID_51_);}
	.st54{fill-rule:evenodd;clip-rule:evenodd;fill:url(#SVGID_52_);}
	.st55{fill-rule:evenodd;clip-rule:evenodd;fill:url(#SVGID_53_);}
	.st56{fill-rule:evenodd;clip-rule:evenodd;fill:url(#SVGID_54_);}
	.st57{fill-rule:evenodd;clip-rule:evenodd;fill:url(#SVGID_55_);}
</style>
<g>
	<linearGradient id="SVGID_1_" gradientUnits="userSpaceOnUse" x1="88.7798" y1="7.1099" x2="83.2074" y2="166.6847">
		<stop  offset="0" style="stop-color:#AFAFAF"/>
		<stop  offset="0.21" style="stop-color:#AFAFAF"/>
		<stop  offset="0.34" style="stop-color:#979695"/>
		<stop  offset="1" style="stop-color:#979695"/>
	</linearGradient>
	<path class="st0" d="M74.1,15.3c1.3-4.8,5.2-12.2,13.8-13.6c4-1,6.3,0.1,8,1.2c2,1.2,3.6,2,5.3,3.7c2.8,2.7,3.9,6,4.1,8.9
		c0.5,3.5,0.9,6.9,1.4,10.4c0.5,4.8,3.4,6.2,6.2,8.9c6,4.3,5.8,9.6,6.8,14.8c0.7,4.9,2,7.9,3.7,10.8c6.3,10.9,5.7,22.4,4.2,29.6
		c-0.8,3.7-2.4,7.5-6.6,7.8c-1.2,6.5,1.7,10.9,3.1,14.7c1.8,3.4-0.1,6.2-1.5,8.4c-4.4,5.6-3.3,9.5-2,10.4c3.1,2.3,0.9,4.6,0.4,5.8
		l-5.2,7.5c0.1,2-1.3,3.4-2.6,5c-3.7,4.2-6.2,9.1-8.4,14.3c-0.7,1.5-1.9,2.4-3.2,3.1c-0.6,1-1.3,2.1-1.2,3c0.2,2,2,3.4,3.4,4.2
		c2.7-4.8,5.7-5.2,9.3-2.1c1.8,1.5,3,2.8,4.4,4.5c-1.9,1.1-3.5,2.5-4.8,4.4l-0.7-0.9c-1.3,2.6-1.2,4.8-0.3,7.2
		c1.2,4.4-0.4,8.2-2.7,10c-2.3,4.9-5.7,7.1-10.7,6.2c-2.3,2-4.8,2.5-7.4,1.8c-1.3,1.1-3.9,1.7-6.4,0.4c-7.7,1.4-16.8-9-12.9-21.6
		c-2.2-5.6-7.2-16.6,1.4-33c5.9-11.4,7.1-14.4,3.5-26.8c-0.8-1.7-2-2.7-3.9-3.1c-4-1-6.8-3.7-9.6-6.5c-4.7-5-7.1-9.3-7.3-12.5
		c-1.1-3.3-2.5-6.6-4.3-9.9c-1-2.2-1.8-4.8-0.4-7.7c1-2,1.1-3.2,0.5-5.2c-0.5-1.9-1.6-3.8-2.9-5.7c-4.1-5.7-5.7-15.2-0.2-24.2
		c3.5-5.7,10.9-13.6,13.5-15.3c3.4-2.3,6.1-5.1,7.9-8.2C71,22.4,72.6,18.9,74.1,15.3z"/>
	<linearGradient id="SVGID_2_" gradientUnits="userSpaceOnUse" x1="88.7798" y1="7.1099" x2="83.2074" y2="166.6847">
		<stop  offset="0" style="stop-color:#AFAFAF"/>
		<stop  offset="0.21" style="stop-color:#AFAFAF"/>
		<stop  offset="0.34" style="stop-color:#979695"/>
		<stop  offset="1" style="stop-color:#979695"/>
	</linearGradient>
	<path class="st1" d="M74.1,15.3c1.3-4.8,5.2-12.2,13.8-13.6c4-1,6.3,0.1,8,1.2c2,1.2,3.6,2,5.3,3.7c2.8,2.7,3.9,6,4.1,8.9
		c0.5,3.5,0.9,6.9,1.4,10.4c0.5,4.8,3.4,6.2,6.2,8.9c6,4.3,5.8,9.6,6.8,14.8c0.7,4.9,2,7.9,3.7,10.8c6.3,10.9,5.7,22.4,4.2,29.6
		c-0.8,3.7-2.4,7.5-6.6,7.8c-1.2,6.5,1.7,10.9,3.1,14.7c1.8,3.4-0.1,6.2-1.5,8.4c-4.4,5.6-3.3,9.5-2,10.4c3.1,2.3,0.9,4.6,0.4,5.8
		l-5.2,7.5c0.1,2-1.3,3.4-2.6,5c-3.7,4.2-6.2,9.1-8.4,14.3c-0.7,1.5-1.9,2.4-3.2,3.1c-0.6,1-1.3,2.1-1.2,3c0.2,2,2,3.4,3.4,4.2
		c2.7-4.8,5.7-5.2,9.3-2.1c1.8,1.5,3,2.8,4.4,4.5c-1.9,1.1-3.5,2.5-4.8,4.4l-0.7-0.9c-1.3,2.6-1.2,4.8-0.3,7.2
		c1.2,4.4-0.4,8.2-2.7,10c-2.3,4.9-5.7,7.1-10.7,6.2c-2.3,2-4.8,2.5-7.4,1.8c-1.3,1.1-3.9,1.7-6.4,0.4c-7.7,1.4-16.8-9-12.9-21.6
		c-2.2-5.6-7.2-16.6,1.4-33c5.9-11.4,7.1-14.4,3.5-26.8c-0.8-1.7-2-2.7-3.9-3.1c-4-1-6.8-3.7-9.6-6.5c-4.7-5-7.1-9.3-7.3-12.5
		c-1.1-3.3-2.5-6.6-4.3-9.9c-1-2.2-1.8-4.8-0.4-7.7c1-2,1.1-3.2,0.5-5.2c-0.5-1.9-1.6-3.8-2.9-5.7c-4.1-5.7-5.7-15.2-0.2-24.2
		c3.5-5.7,10.9-13.6,13.5-15.3c3.4-2.3,6.1-5.1,7.9-8.2C71,22.4,72.6,18.9,74.1,15.3z"/>
	<radialGradient id="SVGID_3_" cx="94.0778" cy="19.5059" r="7.9822" gradientUnits="userSpaceOnUse">
		<stop  offset="0" style="stop-color:#FFF343"/>
		<stop  offset="0.25" style="stop-color:#0D0D0C"/>
		<stop  offset="1" style="stop-color:#000000"/>
	</radialGradient>
	<path class="st2" d="M93.5,19.7c2.4-0.8,4.9-2.5,7.4-4.3c-2,3.1-4.3,5.5-7.1,7.4c-0.5,0.3-0.7-0.1-0.7-0.3
		C93,21.5,93,20.7,93.5,19.7z"/>
	<radialGradient id="SVGID_4_" cx="94.0778" cy="19.5059" r="7.9822" gradientUnits="userSpaceOnUse">
		<stop  offset="0" style="stop-color:#FFF343"/>
		<stop  offset="0.25" style="stop-color:#0D0D0C"/>
		<stop  offset="1" style="stop-color:#000000"/>
	</radialGradient>
	<path class="st3" d="M93.5,19.7c2.4-0.8,4.9-2.5,7.4-4.3c-2,3.1-4.3,5.5-7.1,7.4c-0.5,0.3-0.7-0.1-0.7-0.3
		C93,21.5,93,20.7,93.5,19.7z"/>
	<path class="st4" d="M77.1,36.9c3.2-4.6,8.7-7.3,15-9.3c1.8-0.6,3.2-1,4.5-1.5c-0.5,1.2-0.5,2.4-0.4,3.5c-2.7,0.2-5.5,0.6-8.3,1.4
		C83,32.3,80.1,34.6,77.1,36.9z"/>
	<path class="st4" d="M77.1,36.9c3.2-4.6,8.7-7.3,15-9.3c1.8-0.6,3.2-1,4.5-1.5c-0.5,1.2-0.5,2.4-0.4,3.5c-2.7,0.2-5.5,0.6-8.3,1.4
		C83,32.3,80.1,34.6,77.1,36.9z"/>
	<radialGradient id="SVGID_5_" cx="84.5325" cy="19.4636" r="7.498" gradientUnits="userSpaceOnUse">
		<stop  offset="0" style="stop-color:#FFF343"/>
		<stop  offset="0.25" style="stop-color:#0D0D0C"/>
		<stop  offset="1" style="stop-color:#000000"/>
	</radialGradient>
	<path class="st5" d="M78.5,15c1.3,1,2.7,2,4.1,3c1,0.8,1.7,1.4,2.8,2.2c0,0.8,0.2,1.4,0.1,2.2c0,0.7-1,0.7-1.5-0.1
		c-0.9-1.3-1.8-2.4-2.9-3.5C80,17.5,78.9,16.2,78.5,15z"/>
	<radialGradient id="SVGID_6_" cx="84.5325" cy="19.4636" r="7.498" gradientUnits="userSpaceOnUse">
		<stop  offset="0" style="stop-color:#FFF343"/>
		<stop  offset="0.25" style="stop-color:#0D0D0C"/>
		<stop  offset="1" style="stop-color:#000000"/>
	</radialGradient>
	<path class="st6" d="M78.5,15c1.3,1,2.7,2,4.1,3c1,0.8,1.7,1.4,2.8,2.2c0,0.8,0.2,1.4,0.1,2.2c0,0.7-1,0.7-1.5-0.1
		c-0.9-1.3-1.8-2.4-2.9-3.5C80,17.5,78.9,16.2,78.5,15z"/>
	<linearGradient id="SVGID_7_" gradientUnits="userSpaceOnUse" x1="69.5735" y1="5.5634" x2="143.247" y2="81.8545">
		<stop  offset="0" style="stop-color:#FFFFFF"/>
		<stop  offset="0.38" style="stop-color:#FBFBFB"/>
		<stop  offset="0.81" style="stop-color:#F2F2F2"/>
		<stop  offset="1" style="stop-color:#E2E2E2"/>
	</linearGradient>
	<path class="st7" d="M125.4,95.2c1.2-3.7,1.3-10.1-0.6-10.8c0.7-2.4,0-5.8-2.1-7.1c-1.3-0.3-1.2-1.3-0.9-2.3
		c1.9-14.1-2.4-18.3-7.4-21.3c-0.6-0.5-1.2-0.9-0.6-2.6c1.3-3.7,1.6-7.4,0.4-11.2c-1.3-3.5-4.9-7.5-9.5-3.8c0.7-4,0.7-7.2,0.1-13.2
		c-0.7-4.8-1.4-13.7-11.5-14.1c-0.5-0.1-1.4-0.3-0.7-1.3c0.2-1.7-4.7-2-10.8-0.4C78.9,7.8,77,9.9,75,12.7c1.9-4.5,5.7-9.8,12.9-11
		c4-1,6.3,0.1,8,1.2c2,1.2,3.6,2,5.3,3.7c2.8,2.7,3.9,6,4.1,8.9c0.5,3.5,0.9,6.9,1.4,10.4c0.5,4.8,3.4,6.2,6.2,8.9
		c6,4.3,5.8,9.6,6.8,14.8c0.7,4.9,2,7.9,3.7,10.8c6.3,10.9,5.7,22.4,4.2,29.6C127.1,91.8,126.5,93.7,125.4,95.2z"/>
	<linearGradient id="SVGID_8_" gradientUnits="userSpaceOnUse" x1="69.5735" y1="5.5634" x2="143.247" y2="81.8545">
		<stop  offset="0" style="stop-color:#FFFFFF"/>
		<stop  offset="0.38" style="stop-color:#FBFBFB"/>
		<stop  offset="0.81" style="stop-color:#F2F2F2"/>
		<stop  offset="1" style="stop-color:#E2E2E2"/>
	</linearGradient>
	<path class="st8" d="M125.4,95.2c1.2-3.7,1.3-10.1-0.6-10.8c0.7-2.4,0-5.8-2.1-7.1c-1.3-0.3-1.2-1.3-0.9-2.3
		c1.9-14.1-2.4-18.3-7.4-21.3c-0.6-0.5-1.2-0.9-0.6-2.6c1.3-3.7,1.6-7.4,0.4-11.2c-1.3-3.5-4.9-7.5-9.5-3.8c0.7-4,0.7-7.2,0.1-13.2
		c-0.7-4.8-1.4-13.7-11.5-14.1c-0.5-0.1-1.4-0.3-0.7-1.3c0.2-1.7-4.7-2-10.8-0.4C78.9,7.8,77,9.9,75,12.7c1.9-4.5,5.7-9.8,12.9-11
		c4-1,6.3,0.1,8,1.2c2,1.2,3.6,2,5.3,3.7c2.8,2.7,3.9,6,4.1,8.9c0.5,3.5,0.9,6.9,1.4,10.4c0.5,4.8,3.4,6.2,6.2,8.9
		c6,4.3,5.8,9.6,6.8,14.8c0.7,4.9,2,7.9,3.7,10.8c6.3,10.9,5.7,22.4,4.2,29.6C127.1,91.8,126.5,93.7,125.4,95.2z"/>
	<linearGradient id="SVGID_9_" gradientUnits="userSpaceOnUse" x1="62.5912" y1="42.6567" x2="50.2941" y2="64.8411">
		<stop  offset="0" style="stop-color:#E2E2E2"/>
		<stop  offset="0.39" style="stop-color:#B7B6B6"/>
		<stop  offset="0.59" style="stop-color:#72706E"/>
		<stop  offset="1" style="stop-color:#4D4944"/>
	</linearGradient>
	<path class="st9" d="M69.3,26.3c-0.3,1-0.5,2.1-0.7,3.3c0,1.5-0.5,2.4-1.7,3.6c-3,2.4-1.3,3.8-0.9,5.2c-5.1,0.4-8.6,2.7-13.8,8
		c-1,1.1-2.3,2.2-3.2,3.7c-3.2,5.8-0.4,8,0.6,8.5c3,0.9,4.3-0.9,5.5-3c1.8-2.5,1.9-4.1,6.5-7.5c-2.7,2.9-5.7,7.1-6.2,14.6
		c0,9.9-1.6,15.3-4,19.1c0-0.7-0.1-1.5-0.4-2.4c-0.5-1.9-1.6-3.8-2.9-5.7c-4.1-5.7-5.7-15.2-0.2-24.2c3.5-5.7,10.9-13.6,13.5-15.3
		C64.9,31.9,67.5,29.3,69.3,26.3z"/>
	<linearGradient id="SVGID_10_" gradientUnits="userSpaceOnUse" x1="62.5912" y1="42.6567" x2="50.2941" y2="64.8411">
		<stop  offset="0" style="stop-color:#E2E2E2"/>
		<stop  offset="0.39" style="stop-color:#B7B6B6"/>
		<stop  offset="0.59" style="stop-color:#72706E"/>
		<stop  offset="1" style="stop-color:#4D4944"/>
	</linearGradient>
	<path class="st10" d="M69.3,26.3c-0.3,1-0.5,2.1-0.7,3.3c0,1.5-0.5,2.4-1.7,3.6c-3,2.4-1.3,3.8-0.9,5.2c-5.1,0.4-8.6,2.7-13.8,8
		c-1,1.1-2.3,2.2-3.2,3.7c-3.2,5.8-0.4,8,0.6,8.5c3,0.9,4.3-0.9,5.5-3c1.8-2.5,1.9-4.1,6.5-7.5c-2.7,2.9-5.7,7.1-6.2,14.6
		c0,9.9-1.6,15.3-4,19.1c0-0.7-0.1-1.5-0.4-2.4c-0.5-1.9-1.6-3.8-2.9-5.7c-4.1-5.7-5.7-15.2-0.2-24.2c3.5-5.7,10.9-13.6,13.5-15.3
		C64.9,31.9,67.5,29.3,69.3,26.3z"/>
	<linearGradient id="SVGID_11_" gradientUnits="userSpaceOnUse" x1="62.0358" y1="77.3736" x2="134.8843" y2="158.28">
		<stop  offset="0" style="stop-color:#6B6966"/>
		<stop  offset="0.33" style="stop-color:#A3A2A2"/>
		<stop  offset="0.57" style="stop-color:#999898"/>
		<stop  offset="1" style="stop-color:#46433E"/>
	</linearGradient>
	<path class="st11" d="M120.9,103.9c0.6,3.4,2.1,6.1,3,8.5c1.8,3.4-0.1,6.2-1.5,8.4c-4.4,5.6-3.3,9.5-2,10.4
		c3.1,2.3,0.9,4.6,0.4,5.8l-5.2,7.5c0.1,2-1.3,3.4-2.6,5c-3.7,4.2-6.2,9.1-8.4,14.3c-0.7,1.5-1.9,2.4-3.2,3.1
		c0.9-2.1,1.8-5.1,2.1-8.2c0.4-5.4,1.8-13.4-2.2-21.7c-4.2-7.9-10-15.6-15.9-23.5c-4.6-5.8-7.2-17.9-3.9-30.7
		c0.7-2.6,2.5-8.7,4.1-13.6c0.9-2.8,1.8-5.4,3.5-7.7c-0.6,2-1,4.4-0.9,7.5c0.6,11.5,2.9,18,6.3,24.6c3.6,7,7.3,8.4,12.1,10.2
		c3.2,1.2,6.2,1.6,9.6,1.6c1.6,0.1,2.3,1.1,2.6,2.3L120.9,103.9z"/>
	<linearGradient id="SVGID_12_" gradientUnits="userSpaceOnUse" x1="62.0358" y1="77.3736" x2="134.8843" y2="158.28">
		<stop  offset="0" style="stop-color:#6B6966"/>
		<stop  offset="0.33" style="stop-color:#A3A2A2"/>
		<stop  offset="0.57" style="stop-color:#999898"/>
		<stop  offset="1" style="stop-color:#46433E"/>
	</linearGradient>
	<path class="st12" d="M120.9,103.9c0.6,3.4,2.1,6.1,3,8.5c1.8,3.4-0.1,6.2-1.5,8.4c-4.4,5.6-3.3,9.5-2,10.4
		c3.1,2.3,0.9,4.6,0.4,5.8l-5.2,7.5c0.1,2-1.3,3.4-2.6,5c-3.7,4.2-6.2,9.1-8.4,14.3c-0.7,1.5-1.9,2.4-3.2,3.1
		c0.9-2.1,1.8-5.1,2.1-8.2c0.4-5.4,1.8-13.4-2.2-21.7c-4.2-7.9-10-15.6-15.9-23.5c-4.6-5.8-7.2-17.9-3.9-30.7
		c0.7-2.6,2.5-8.7,4.1-13.6c0.9-2.8,1.8-5.4,3.5-7.7c-0.6,2-1,4.4-0.9,7.5c0.6,11.5,2.9,18,6.3,24.6c3.6,7,7.3,8.4,12.1,10.2
		c3.2,1.2,6.2,1.6,9.6,1.6c1.6,0.1,2.3,1.1,2.6,2.3L120.9,103.9z"/>
	<linearGradient id="SVGID_13_" gradientUnits="userSpaceOnUse" x1="96.5065" y1="52.9809" x2="113.0027" y2="110.5099">
		<stop  offset="0" style="stop-color:#C9C8C8"/>
		<stop  offset="0.57" style="stop-color:#C9C8C8"/>
		<stop  offset="1" style="stop-color:#AFAFAF"/>
	</linearGradient>
	<path class="st13" d="M90.5,60c3.5-3.4,8.5-5.2,13.3-4c1.6,0.3,2.7,1.2,3.4,2.2c2.6,3.1,5,6.5,7.3,10.2c1.7,2.3,3.2,5.9,3.7,8.4
		l1,17.3c0.3,2.5,0.8,3.1,1.6,3.6c-0.4,2.3-0.3,4.3,0,6.2l-2.1,4.1c-0.3-1.2-1-2.2-2.6-2.3c-3.4-0.1-6.4-0.5-9.6-1.6
		c-4.8-1.8-8.5-3.2-12.1-10.2c-3.4-6.6-5.6-13.1-6.3-24.6c-0.1-3.1,0.3-5.5,0.9-7.5C89.5,61.1,90,60.5,90.5,60z"/>
	<linearGradient id="SVGID_14_" gradientUnits="userSpaceOnUse" x1="96.5065" y1="52.9809" x2="113.0027" y2="110.5099">
		<stop  offset="0" style="stop-color:#C9C8C8"/>
		<stop  offset="0.57" style="stop-color:#C9C8C8"/>
		<stop  offset="1" style="stop-color:#AFAFAF"/>
	</linearGradient>
	<path class="st14" d="M90.5,60c3.5-3.4,8.5-5.2,13.3-4c1.6,0.3,2.7,1.2,3.4,2.2c2.6,3.1,5,6.5,7.3,10.2c1.7,2.3,3.2,5.9,3.7,8.4
		l1,17.3c0.3,2.5,0.8,3.1,1.6,3.6c-0.4,2.3-0.3,4.3,0,6.2l-2.1,4.1c-0.3-1.2-1-2.2-2.6-2.3c-3.4-0.1-6.4-0.5-9.6-1.6
		c-4.8-1.8-8.5-3.2-12.1-10.2c-3.4-6.6-5.6-13.1-6.3-24.6c-0.1-3.1,0.3-5.5,0.9-7.5C89.5,61.1,90,60.5,90.5,60z"/>
	<radialGradient id="SVGID_15_" cx="114.9482" cy="70.3593" r="44.8305" gradientUnits="userSpaceOnUse">
		<stop  offset="0" style="stop-color:#C9C8C8"/>
		<stop  offset="0.53" style="stop-color:#C9C8C8"/>
		<stop  offset="1" style="stop-color:#7F7E7C"/>
	</radialGradient>
	<path class="st15" d="M104.1,56.1l-0.7,1.1c-1.7,2.8-2.5,5.2-3.4,8.7c-0.7,2.8-0.7,5.5-0.4,8.5c0.7,7.2,2.9,14.3,7.9,21
		c3.3,4.5,9,8.5,10.4,11h0c-0.4-0.4-1-0.6-1.7-0.7c-3.4-0.1-6.4-0.5-9.6-1.6c-4.8-1.8-8.5-3.2-12.1-10.2c-3.4-6.6-5.6-13.1-6.3-24.6
		c-0.1-3.1,0.3-5.5,0.9-7.5c0.4-0.6,0.9-1.1,1.4-1.6c3.5-3.4,8.5-5.2,13.3-4C104,56,104,56.1,104.1,56.1z"/>
	<radialGradient id="SVGID_16_" cx="114.9482" cy="70.3593" r="44.8305" gradientUnits="userSpaceOnUse">
		<stop  offset="0" style="stop-color:#C9C8C8"/>
		<stop  offset="0.53" style="stop-color:#C9C8C8"/>
		<stop  offset="1" style="stop-color:#7F7E7C"/>
	</radialGradient>
	<path class="st16" d="M104.1,56.1l-0.7,1.1c-1.7,2.8-2.5,5.2-3.4,8.7c-0.7,2.8-0.7,5.5-0.4,8.5c0.7,7.2,2.9,14.3,7.9,21
		c3.3,4.5,9,8.5,10.4,11h0c-0.4-0.4-1-0.6-1.7-0.7c-3.4-0.1-6.4-0.5-9.6-1.6c-4.8-1.8-8.5-3.2-12.1-10.2c-3.4-6.6-5.6-13.1-6.3-24.6
		c-0.1-3.1,0.3-5.5,0.9-7.5c0.4-0.6,0.9-1.1,1.4-1.6c3.5-3.4,8.5-5.2,13.3-4C104,56,104,56.1,104.1,56.1z"/>
	<linearGradient id="SVGID_17_" gradientUnits="userSpaceOnUse" x1="115.391" y1="46.4498" x2="104.8778" y2="63.9468">
		<stop  offset="0" style="stop-color:#FFFFFF"/>
		<stop  offset="0.38" style="stop-color:#FBFBFB"/>
		<stop  offset="0.81" style="stop-color:#F2F2F2"/>
		<stop  offset="1" style="stop-color:#E2E2E2"/>
	</linearGradient>
	<path class="st17" d="M116.8,72.5c-3.9-4.7-9.5-14.3-14-12.4c-1.3,0.3-1.6-0.4-1.1-1.2c0.1-1.9-5.7-2.1-12.1,2.2
		c0.3-0.4,0.6-0.7,1-1c3.5-3.4,8.5-5.2,13.3-4c1.6,0.3,2.7,1.2,3.4,2.2c2.6,3.1,5,6.5,7.3,10.2C115.4,69.6,116.2,71,116.8,72.5z"/>
	<linearGradient id="SVGID_18_" gradientUnits="userSpaceOnUse" x1="115.391" y1="46.4498" x2="104.8778" y2="63.9468">
		<stop  offset="0" style="stop-color:#FFFFFF"/>
		<stop  offset="0.38" style="stop-color:#FBFBFB"/>
		<stop  offset="0.81" style="stop-color:#F2F2F2"/>
		<stop  offset="1" style="stop-color:#E2E2E2"/>
	</linearGradient>
	<path class="st18" d="M116.8,72.5c-3.9-4.7-9.5-14.3-14-12.4c-1.3,0.3-1.6-0.4-1.1-1.2c0.1-1.9-5.7-2.1-12.1,2.2
		c0.3-0.4,0.6-0.7,1-1c3.5-3.4,8.5-5.2,13.3-4c1.6,0.3,2.7,1.2,3.4,2.2c2.6,3.1,5,6.5,7.3,10.2C115.4,69.6,116.2,71,116.8,72.5z"/>
	<linearGradient id="SVGID_19_" gradientUnits="userSpaceOnUse" x1="119.8221" y1="77.6347" x2="106.9168" y2="93.0145">
		<stop  offset="0" style="stop-color:#979695"/>
		<stop  offset="1" style="stop-color:#C9C8C8"/>
	</linearGradient>
	<path class="st20" d="M110.1,80.5c-0.5-2.8-1.1-6.7,0.6-6.8c1.5-0.1,1.3,2.2,1.7,4.6c0.9,4.4,1.5,7.9,2.8,12.4
		c0.4,1.3,1.2,4.4,1.5,5.8C114,91.6,111.3,86.6,110.1,80.5z"/>
	<linearGradient id="SVGID_20_" gradientUnits="userSpaceOnUse" x1="119.8221" y1="77.6347" x2="106.9168" y2="93.0145">
		<stop  offset="0" style="stop-color:#979695"/>
		<stop  offset="1" style="stop-color:#C9C8C8"/>
	</linearGradient>
	<path class="st21" d="M110.1,80.5c-0.5-2.8-1.1-6.7,0.6-6.8c1.5-0.1,1.3,2.2,1.7,4.6c0.9,4.4,1.5,7.9,2.8,12.4
		c0.4,1.3,1.2,4.4,1.5,5.8C114,91.6,111.3,86.6,110.1,80.5z"/>
	<linearGradient id="SVGID_21_" gradientUnits="userSpaceOnUse" x1="122.8729" y1="71.0858" x2="103.0457" y2="87.7229">
		<stop  offset="0" style="stop-color:#979695"/>
		<stop  offset="1" style="stop-color:#C9C8C8"/>
	</linearGradient>
	<path class="st22" d="M100,76.9c-0.3-5.3,0-9.1,2.1-9.3c3.1-0.3,4.1,4.1,4.6,7.5c0.9,6.5,0.7,13.3,3.7,20.2
		c0.9,2.1,1.4,3.3,2.4,5.5c-1.8-1.7-3.7-3.5-5.2-5.5c-3.9-5.2-6.1-10.8-7.2-16.4L100,76.9L100,76.9z"/>
	<linearGradient id="SVGID_22_" gradientUnits="userSpaceOnUse" x1="122.8729" y1="71.0858" x2="103.0457" y2="87.7229">
		<stop  offset="0" style="stop-color:#979695"/>
		<stop  offset="1" style="stop-color:#C9C8C8"/>
	</linearGradient>
	<path class="st23" d="M100,76.9c-0.3-5.3,0-9.1,2.1-9.3c3.1-0.3,4.1,4.1,4.6,7.5c0.9,6.5,0.7,13.3,3.7,20.2
		c0.9,2.1,1.4,3.3,2.4,5.5c-1.8-1.7-3.7-3.5-5.2-5.5c-3.9-5.2-6.1-10.8-7.2-16.4L100,76.9L100,76.9z"/>
	<path class="st42" d="M94.7,57.1c-1.2,2.4-2.3,3.7-3.2,7c-1.1,4-1.1,9-0.4,11.9c1.7,6.8,4,15.5,9,20.7c1.5,2.1,7.5,6.3,9.8,5.3
		c1.4-0.6,0.9-2.3-0.5-4.4l0,0c3.3,3.5,7.4,6.6,8.5,8.7h0c-0.4-0.4-1-0.6-1.7-0.7c-3.4-0.1-6.4-0.5-9.6-1.6
		c-4.8-1.8-8.5-3.2-12.1-10.2c-3.4-6.6-5.6-13.1-6.3-24.6c-0.1-3.1,0.3-5.5,0.9-7.5c0.4-0.6,0.9-1.1,1.4-1.6
		C91.8,58.8,93.2,57.8,94.7,57.1z"/>
	<path class="st42" d="M94.7,57.1c-1.2,2.4-2.3,3.7-3.2,7c-1.1,4-1.1,9-0.4,11.9c1.7,6.8,4,15.5,9,20.7c1.5,2.1,7.5,6.3,9.8,5.3
		c1.4-0.6,0.9-2.3-0.5-4.4l0,0c3.3,3.5,7.4,6.6,8.5,8.7h0c-0.4-0.4-1-0.6-1.7-0.7c-3.4-0.1-6.4-0.5-9.6-1.6
		c-4.8-1.8-8.5-3.2-12.1-10.2c-3.4-6.6-5.6-13.1-6.3-24.6c-0.1-3.1,0.3-5.5,0.9-7.5c0.4-0.6,0.9-1.1,1.4-1.6
		C91.8,58.8,93.2,57.8,94.7,57.1z"/>
	<linearGradient id="SVGID_23_" gradientUnits="userSpaceOnUse" x1="100.1999" y1="83.7179" x2="91.6208" y2="84.9236">
		<stop  offset="0" style="stop-color:#979695"/>
		<stop  offset="1" style="stop-color:#C9C8C8"/>
	</linearGradient>
	<path class="st24" d="M91.1,76c-0.4-2.8,1-4.4,2.1-4.2c0.8,0.1,1.6,2.2,1.8,3.9c0.3,7.2,2.5,13.8,5.1,21.1
		C95.1,91.5,92.8,82.8,91.1,76z"/>
	<linearGradient id="SVGID_24_" gradientUnits="userSpaceOnUse" x1="100.1999" y1="83.7179" x2="91.6208" y2="84.9236">
		<stop  offset="0" style="stop-color:#979695"/>
		<stop  offset="1" style="stop-color:#C9C8C8"/>
	</linearGradient>
	<path class="st25" d="M91.1,76c-0.4-2.8,1-4.4,2.1-4.2c0.8,0.1,1.6,2.2,1.8,3.9c0.3,7.2,2.5,13.8,5.1,21.1
		C95.1,91.5,92.8,82.8,91.1,76z"/>
	<linearGradient id="SVGID_25_" gradientUnits="userSpaceOnUse" x1="65.06" y1="52.3762" x2="85.0988" y2="139.1738">
		<stop  offset="0" style="stop-color:#AFAFAF"/>
		<stop  offset="0.46" style="stop-color:#7F7E7C"/>
		<stop  offset="0.67" style="stop-color:#747370"/>
		<stop  offset="1" style="stop-color:#979695"/>
	</linearGradient>
	<path class="st26" d="M51.6,81.7L51.6,81.7c3.9-3.9,4.4-11.5,5.2-17.8c0.1-9.9,4.2-13.7,7-16.3c3.4-2.9,8.5-3,11.2-0.8
		c3.3-0.6,6.6,3.4,8.3,5.9c2,2.9,4.2,5.7,6.9,7.6c0,0-1.1,1.2-1.2,1.4c-1.7,2.3-2.5,4.9-3.5,7.7c-1.6,4.8-3.4,11-4.1,13.6
		c-2.2,8.6-1.8,16.9,0.1,23.1c-1.3,2-1.8,5.1-0.3,8.4c2.2,4.7,4.4,8.4,7,13.1c3.9,7.8,6.9,15.1,4.8,24.4c-1.4,6.1-4.4,11-7,15.8
		c3.9-7.8,6.4-15,5.5-23.8c-0.6-5.7-1.7-11-6.5-17.2c-2.5-3.3-5-4.2-5.9-4.3c-1.4-0.2,0.1,2.6,2.6,6c6.9,9.3,7.3,18.9,6.3,24.4
		l0,0.2c0-0.1,0-0.3,0.1-0.4c0.1-6.3,0-7.7-1.3-12.8c-1.5-5.8-4.4-8.9-7.6-13.7c-1.1-1.6-2.3-3.1-4-4.3c-0.5-0.3-1-0.1-0.8,0.3l0,0
		c-0.6-0.5-1.4-0.9-2.3-1.1c-4-1-6.8-3.7-9.6-6.5c-4.7-5-7.1-9.3-7.3-12.5c-1.1-3.3-2.5-6.6-4.3-9.9c-1-2.2-1.8-4.8-0.4-7.7
		C51.3,83.5,51.6,82.6,51.6,81.7L51.6,81.7z M88.4,72L88.4,72L88.4,72L88.4,72z"/>
	<linearGradient id="SVGID_26_" gradientUnits="userSpaceOnUse" x1="49.4989" y1="95.6618" x2="99.2412" y2="113.7666">
		<stop  offset="0" style="stop-color:#AFAFAF"/>
		<stop  offset="0.33" style="stop-color:#7F7E7C"/>
		<stop  offset="0.67" style="stop-color:#747370"/>
		<stop  offset="1" style="stop-color:#979695"/>
	</linearGradient>
	<path class="st27" d="M51.6,81.7L51.6,81.7c3.9-3.9,4.4-11.5,5.2-17.8c0.1-9.9,4.2-13.7,7-16.3c3.4-2.9,8.5-3,11.2-0.8
		c3.3-0.6,6.6,3.4,8.3,5.9c2,2.9,4.2,5.7,6.9,7.6c0,0-1.1,1.2-1.2,1.4c-1.7,2.3-2.5,4.9-3.5,7.7c-1.6,4.8-3.4,11-4.1,13.6
		c-2.2,8.6-1.8,16.9,0.1,23.1c-1.3,2-1.8,5.1-0.3,8.4c2.2,4.7,4.4,8.4,7,13.1c3.9,7.8,6.9,15.1,4.8,24.4c-1.4,6.1-4.4,11-7,15.8
		c3.9-7.8,6.4-15,5.5-23.8c-0.6-5.7-1.7-11-6.5-17.2c-2.5-3.3-5-4.2-5.9-4.3c-1.4-0.2,0.1,2.6,2.6,6c6.9,9.3,7.3,18.9,6.3,24.4
		l0,0.2c0-0.1,0-0.3,0.1-0.4c0.1-6.3,0-7.7-1.3-12.8c-1.5-5.8-4.4-8.9-7.6-13.7c-1.1-1.6-2.3-3.1-4-4.3c-0.5-0.3-1-0.1-0.8,0.3l0,0
		c-0.6-0.5-1.4-0.9-2.3-1.1c-4-1-6.8-3.7-9.6-6.5c-4.7-5-7.1-9.3-7.3-12.5c-1.1-3.3-2.5-6.6-4.3-9.9c-1-2.2-1.8-4.8-0.4-7.7
		C51.3,83.5,51.6,82.6,51.6,81.7L51.6,81.7z M88.4,72L88.4,72L88.4,72L88.4,72z"/>
	<linearGradient id="SVGID_27_" gradientUnits="userSpaceOnUse" x1="111.4768" y1="46.2339" x2="76.0993" y2="53.7537">
		<stop  offset="0" style="stop-color:#FFFFFF"/>
		<stop  offset="0.17" style="stop-color:#FBFBFB"/>
		<stop  offset="0.43" style="stop-color:#F2F2F2"/>
		<stop  offset="1" style="stop-color:#E2E2E2"/>
	</linearGradient>
	<path class="st28" d="M89.9,60.7c-2-0.9-4.1-2.2-6.4-4.8c-3-3.2-5.5-6.3-10.5-5.7c-1.7,0.4-2.3,0-1.5-0.6c2.9-2.1-0.2-3.5-5.5-0.9
		c-3.8,1.9-6.4,5.7-8.6,9.3c1.3-5.7,4.2-8.5,6.3-10.5c3.4-2.9,8.5-3,11.2-0.8c3.3-0.6,6.6,3.4,8.3,5.9c2,2.9,4.2,5.7,6.9,7.6
		C90.3,60.3,90.1,60.5,89.9,60.7z"/>
	<linearGradient id="SVGID_28_" gradientUnits="userSpaceOnUse" x1="111.4768" y1="46.2339" x2="76.0993" y2="53.7537">
		<stop  offset="0" style="stop-color:#FFFFFF"/>
		<stop  offset="0.17" style="stop-color:#FBFBFB"/>
		<stop  offset="0.43" style="stop-color:#F2F2F2"/>
		<stop  offset="1" style="stop-color:#E2E2E2"/>
	</linearGradient>
	<path class="st29" d="M89.9,60.7c-2-0.9-4.1-2.2-6.4-4.8c-3-3.2-5.5-6.3-10.5-5.7c-1.7,0.4-2.3,0-1.5-0.6c2.9-2.1-0.2-3.5-5.5-0.9
		c-3.8,1.9-6.4,5.7-8.6,9.3c1.3-5.7,4.2-8.5,6.3-10.5c3.4-2.9,8.5-3,11.2-0.8c3.3-0.6,6.6,3.4,8.3,5.9c2,2.9,4.2,5.7,6.9,7.6
		C90.3,60.3,90.1,60.5,89.9,60.7z"/>
	<linearGradient id="SVGID_29_" gradientUnits="userSpaceOnUse" x1="86.5378" y1="65.8418" x2="66.6285" y2="70.0736">
		<stop  offset="0" style="stop-color:#747370"/>
		<stop  offset="0.71" style="stop-color:#B2B1B1"/>
		<stop  offset="1" style="stop-color:#C9C8C8"/>
	</linearGradient>
	<path class="st30" d="M76.7,61.4c-0.5-3.2-1.5-5,0.3-6.3c2.3-0.7,2.1,2,3.4,4.1c1.3,3.7,3.8,6.7,5.2,10.2c-1.1,3.2-2.2,7-3.1,9.9
		C80.5,74.3,78.3,68.5,76.7,61.4z"/>
	<linearGradient id="SVGID_30_" gradientUnits="userSpaceOnUse" x1="68.5791" y1="94.6928" x2="52.5838" y2="93.0117">
		<stop  offset="0" style="stop-color:#747370"/>
		<stop  offset="0.71" style="stop-color:#B2B1B1"/>
		<stop  offset="1" style="stop-color:#C9C8C8"/>
	</linearGradient>
	<path class="st31" d="M60.9,78.6c0.3-4.3,0.4-6.5,2.2-8c2.3-0.8,2.2,3.2,2.8,5.6c0.8,10.2,6.9,37.5,10.6,43
		C71.2,115,62.6,98.7,60.9,78.6z"/>
	<linearGradient id="SVGID_31_" gradientUnits="userSpaceOnUse" x1="78.183" y1="82.2986" x2="64.4498" y2="83.5002">
		<stop  offset="0" style="stop-color:#747370"/>
		<stop  offset="0.71" style="stop-color:#B2B1B1"/>
		<stop  offset="1" style="stop-color:#C9C8C8"/>
	</linearGradient>
	<path class="st32" d="M69.6,67.9c-0.5-3.3-1.1-6.7,1.5-7.1c2.5-0.2,2.5,2.3,3.2,4.4c0.3,4.2,3.4,14.1,6.7,20.7
		c-1.3,6.7-1,13.2,0.3,18.4v0C75.6,99.2,70.7,78.9,69.6,67.9z"/>
</g>
</svg>
