<?xml version="1.0" encoding="utf-8"?>
<!-- Generator: Adobe Illustrator 24.0.2, SVG Export Plug-In . SVG Version: 6.00 Build 0)  -->
<svg version="1.0" id="Слой_1" xmlns="http://www.w3.org/2000/svg" xmlns:xlink="http://www.w3.org/1999/xlink" x="0px" y="0px"
	 viewBox="0 0 28 28" enable-background="new 0 0 28 28" xml:space="preserve">
<linearGradient id="SVGID_1_" gradientUnits="userSpaceOnUse" x1="0.1408" y1="14.0432" x2="11.5233" y2="14.0432">
	<stop  offset="0" style="stop-color:#585858"/>
	<stop  offset="0.1742" style="stop-color:#414141"/>
	<stop  offset="0.4571" style="stop-color:#212121"/>
	<stop  offset="0.695" style="stop-color:#0D0D0D"/>
	<stop  offset="0.8575" style="stop-color:#060606"/>
</linearGradient>
<path fill="url(#SVGID_1_)" stroke="#E23A00" stroke-miterlimit="10" d="M11.4,8.5c0.1-0.1,0.1-0.3,0-0.4L8.9,5.6
	c-0.1-0.1-0.3-0.1-0.4,0l-8.3,8.3c-0.1,0.1-0.1,0.3,0,0.4l8.3,8.3c0.1,0.1,0.3,0.1,0.4,0l2.6-2.6c0.1-0.1,0.1-0.3,0-0.4l-5.3-5.3
	C6,14.1,6,14,6.1,13.9L11.4,8.5L11.4,8.5z"/>
<linearGradient id="SVGID_2_" gradientUnits="userSpaceOnUse" x1="10.922" y1="14.039" x2="28" y2="14.039">
	<stop  offset="0" style="stop-color:#585858"/>
	<stop  offset="0.1742" style="stop-color:#414141"/>
	<stop  offset="0.4571" style="stop-color:#212121"/>
	<stop  offset="0.695" style="stop-color:#0D0D0D"/>
	<stop  offset="0.8575" style="stop-color:#060606"/>
</linearGradient>
<path fill="url(#SVGID_2_)" stroke="#E23A00" stroke-miterlimit="10" d="M19.6,5.6c-0.1-0.1-0.3-0.1-0.4,0L11,13.8
	c-0.1,0.1-0.1,0.3,0,0.4l2.6,2.6c0.1,0.1,0.3,0.1,0.4,0l5.3-5.3c0.1-0.1,0.3-0.1,0.4,0l2.4,2.4c0.1,0.1,0.1,0.3,0,0.4l-5.3,5.3
	c-0.1,0.1-0.1,0.3,0,0.4l2.6,2.6c0.1,0.1,0.3,0.1,0.4,0l8.3-8.3c0.1-0.1,0.1-0.3,0-0.4L19.6,5.6L19.6,5.6z"/>
</svg>
