<?xml version="1.0" encoding="utf-8"?>
<!-- Generator: Adobe Illustrator 24.0.2, SVG Export Plug-In . SVG Version: 6.00 Build 0)  -->
<svg version="1.1" id="Слой_1" xmlns="http://www.w3.org/2000/svg" xmlns:xlink="http://www.w3.org/1999/xlink" x="0px" y="0px"
	 viewBox="0 0 180 47" style="enable-background:new 0 0 180 47;" xml:space="preserve">
<style type="text/css">
	.st0{fill:#020202;}
	.st1{fill:url(#SVGID_1_);}
	.st2{fill:#E23B00;}
</style>
<path class="st0" d="M176,42c0,1.7-1.7,3.2-3.7,3.2H7.7c-2,0-3.7-1.4-3.7-3.2V5c0-1.7,1.7-3.2,3.7-3.2h164.5c2,0,3.7,1.4,3.7,3.2v37
	H176z"/>
<linearGradient id="SVGID_1_" gradientUnits="userSpaceOnUse" x1="89.95" y1="45.5554" x2="89.95" y2="4.1842" gradientTransform="matrix(1 0 0 -1 0 48)">
	<stop  offset="0" style="stop-color:#000000"/>
	<stop  offset="1" style="stop-color:#182120"/>
</linearGradient>
<path class="st1" d="M172.3,44.5H7.7c-1.6,0-3-1.1-3-2.5V5c0-1.4,1.3-2.5,3-2.5h164.5c1.6,0,3,1.1,3,2.5v37
	C175.2,43.4,173.9,44.5,172.3,44.5L172.3,44.5z"/>
<path class="st0" d="M101,38H79c-1.9,0-3.4,1.3-3.4,2.9v3.6h28.8v-3.6C104.4,39.3,102.9,38,101,38z"/>
<path class="st2" d="M101,38.3H79c-1.7,0-3,1.1-3,2.6v3.6h28v-3.6C104,39.5,102.7,38.3,101,38.3z"/>
<g>
	<g>
		<path class="st2" d="M48,17.7h2.8c3.2,0,5.1,1.7,5.1,5.2s-1.9,5.3-5,5.3H48V17.7z M50.7,26.6c2.1,0,3.3-1.2,3.3-3.8
			s-1.2-3.7-3.3-3.7h-0.8v7.5H50.7z"/>
		<path class="st2" d="M59.9,17.7h2.2l3.4,10.5h-2L62,22.6c-0.3-1.1-0.6-2.3-0.9-3.5H61c-0.3,1.2-0.6,2.3-0.9,3.5l-1.6,5.6h-1.9
			L59.9,17.7z M58.5,23.8h4.9v1.5h-4.9V23.8z"/>
		<path class="st2" d="M66.1,26.8l1.1-1.3c0.7,0.7,1.8,1.2,2.7,1.2c1.2,0,1.8-0.5,1.8-1.4s-0.7-1.1-1.6-1.5l-1.4-0.6
			c-1-0.4-2.1-1.2-2.1-2.8c0-1.7,1.5-3,3.5-3c1.2,0,2.4,0.5,3.2,1.3l-1,1.2C71.6,19.3,70.9,19,70,19c-1,0-1.6,0.5-1.6,1.2
			c0,0.8,0.8,1.1,1.7,1.5l1.4,0.6c1.2,0.5,2.1,1.3,2.1,2.8c0,1.7-1.4,3.1-3.8,3.1C68.5,28.3,67.1,27.8,66.1,26.8z"/>
		<path class="st2" d="M75.5,17.7h1.9v4.2h4.2v-4.2h1.9v10.5h-1.9v-4.6h-4.2v4.6h-1.9V17.7z"/>
		<path class="st2" d="M86.1,17.7h3.3c2.2,0,3.7,0.7,3.7,2.6c0,1-0.5,1.9-1.5,2.3v0.1c1.2,0.3,2,1.1,2,2.5c0,2.1-1.7,3.1-4,3.1H86
			L86.1,17.7L86.1,17.7z M89.3,22c1.5,0,2.1-0.6,2.1-1.5c0-1-0.7-1.4-2-1.4H88V22H89.3z M89.6,26.7c1.5,0,2.4-0.6,2.4-1.7
			s-0.8-1.6-2.4-1.6H88v3.3C88,26.7,89.6,26.7,89.6,26.7z"/>
		<path class="st2" d="M95.1,22.9c0-3.4,1.9-5.4,4.6-5.4s4.6,2,4.6,5.4s-1.9,5.5-4.6,5.5S95.1,26.2,95.1,22.9z M102.5,22.9
			c0-2.3-1.1-3.8-2.7-3.8S97,20.5,97,22.9s1.1,3.9,2.7,3.9S102.5,25.2,102.5,22.9z"/>
		<path class="st2" d="M108.4,17.7h2.2l3.4,10.5h-2l-1.6-5.6c-0.3-1.1-0.6-2.3-0.9-3.5h-0.1c-0.3,1.2-0.6,2.3-0.9,3.5l-1.6,5.6H105
			L108.4,17.7z M107,23.8h4.9v1.5H107V23.8z"/>
		<path class="st2" d="M115.2,17.7h3.5c2.2,0,3.9,0.8,3.9,3.1s-1.7,3.3-3.9,3.3H117v4.1h-1.9L115.2,17.7L115.2,17.7z M118.5,22.6
			c1.4,0,2.2-0.6,2.2-1.8c0-1.2-0.8-1.6-2.2-1.6H117v3.4H118.5z M118.3,23.5l1.3-1.1l3.3,5.7h-2.1L118.3,23.5z"/>
		<path class="st2" d="M124.6,17.7h2.8c3.2,0,5.1,1.7,5.1,5.2s-1.9,5.3-5,5.3h-2.9V17.7z M127.3,26.6c2.1,0,3.3-1.2,3.3-3.8
			s-1.2-3.7-3.3-3.7h-0.8v7.5H127.3z"/>
	</g>
</g>
</svg>
