<?xml version="1.0" encoding="utf-8"?>
<!-- Generator: Adobe Illustrator 24.0.2, SVG Export Plug-In . SVG Version: 6.00 Build 0)  -->
<svg version="1.1" id="Слой_1" xmlns="http://www.w3.org/2000/svg" xmlns:xlink="http://www.w3.org/1999/xlink" x="0px" y="0px"
	 viewBox="0 0 180 47" style="enable-background:new 0 0 180 47;" xml:space="preserve">
<style type="text/css">
	.st0{fill:#020202;}
	.st1{fill:url(#SVGID_1_);}
	.st2{fill:none;}
	.st3{enable-background:new    ;}
	.st4{fill:#BCBBBB;}
</style>
<path class="st0" d="M176,42c0,1.7-1.7,3.2-3.7,3.2H7.7c-2,0-3.7-1.4-3.7-3.2V5c0-1.7,1.7-3.2,3.7-3.2h164.5c2,0,3.7,1.4,3.7,3.2v37
	H176z"/>
<linearGradient id="SVGID_1_" gradientUnits="userSpaceOnUse" x1="89.95" y1="-406.4446" x2="89.95" y2="-447.8158" gradientTransform="matrix(1 0 0 -1 0 -404)">
	<stop  offset="0" style="stop-color:#000000"/>
	<stop  offset="1" style="stop-color:#182120"/>
</linearGradient>
<path class="st1" d="M172.3,44.5H7.7c-1.6,0-3-1.1-3-2.5V5c0-1.4,1.3-2.5,3-2.5h164.5c1.6,0,3,1.1,3,2.5v37
	C175.2,43.4,173.9,44.5,172.3,44.5L172.3,44.5z"/>
<rect x="4" y="16.3" class="st2" width="172" height="44"/>
<g class="st3">
	<path class="st4" d="M20.8,27.2c0,0.1,0,0.3,0,0.4s0,0.2,0,0.2s0,0.1-0.1,0.2s-0.1,0.1-0.1,0.2s-0.2,0.1-0.4,0.2
		c-0.2,0.1-0.4,0.2-0.6,0.3c-0.3,0.1-0.5,0.2-0.9,0.2C18.4,29,18,29,17.7,29c-0.7,0-1.4-0.1-2-0.3s-1.1-0.6-1.5-1s-0.7-1-1-1.7
		s-0.3-1.5-0.3-2.4s0.1-1.7,0.4-2.4c0.2-0.7,0.6-1.3,1-1.8s1-0.8,1.6-1.1c0.6-0.2,1.3-0.4,2-0.4c0.3,0,0.6,0,0.9,0.1
		s0.5,0.1,0.8,0.2c0.2,0.1,0.4,0.2,0.6,0.3c0.2,0.1,0.3,0.2,0.4,0.3c0.1,0.1,0.1,0.1,0.2,0.2s0,0.1,0.1,0.2c0,0.1,0,0.2,0,0.3
		c0,0.1,0,0.2,0,0.4c0,0.2,0,0.3,0,0.4s0,0.2-0.1,0.3s-0.1,0.1-0.1,0.2s-0.1,0.1-0.1,0.1c-0.1,0-0.2,0-0.3-0.1s-0.3-0.2-0.5-0.3
		c-0.2-0.1-0.4-0.2-0.7-0.3c-0.3-0.1-0.6-0.1-1-0.1s-0.8,0.1-1.1,0.3c-0.3,0.2-0.6,0.4-0.9,0.7c-0.2,0.3-0.4,0.7-0.5,1.2
		s-0.2,1-0.2,1.6s0.1,1.2,0.2,1.6c0.1,0.5,0.3,0.8,0.6,1.1c0.2,0.3,0.5,0.5,0.9,0.7c0.3,0.1,0.7,0.2,1.1,0.2s0.7,0,1-0.1
		s0.5-0.2,0.7-0.3c0.2-0.1,0.4-0.2,0.5-0.3c0.1-0.1,0.2-0.1,0.3-0.1c0.1,0,0.1,0,0.1,0l0.1,0.1c0,0,0,0.2,0,0.3S20.8,27,20.8,27.2z"
		/>
	<path class="st4" d="M31.1,24.8c0,0.7-0.1,1.2-0.3,1.8c-0.2,0.5-0.5,1-0.9,1.3s-0.8,0.6-1.4,0.8C28,28.9,27.4,29,26.7,29
		c-0.7,0-1.3-0.1-1.8-0.3s-1-0.4-1.4-0.8s-0.7-0.8-0.9-1.3c-0.2-0.5-0.3-1.1-0.3-1.8v-6.5c0-0.1,0-0.1,0-0.1s0.1-0.1,0.2-0.1
		s0.2-0.1,0.3-0.1c0.1,0,0.3,0,0.5,0s0.4,0,0.5,0s0.2,0,0.3,0.1c0.1,0,0.1,0.1,0.2,0.1l0.1,0.1v6.3c0,0.4,0.1,0.8,0.2,1.1
		s0.3,0.6,0.5,0.8c0.2,0.2,0.4,0.4,0.7,0.5c0.3,0.1,0.6,0.2,0.9,0.2s0.7-0.1,0.9-0.2s0.5-0.3,0.7-0.5s0.3-0.5,0.4-0.7
		c0.1-0.3,0.2-0.6,0.2-1v-6.5c0-0.1,0-0.1,0-0.1s0.1-0.1,0.2-0.1s0.2-0.1,0.3-0.1c0.1,0,0.3,0,0.5,0s0.4,0,0.5,0s0.2,0,0.3,0.1
		c0.1,0,0.1,0.1,0.2,0.1s0,0.1,0,0.1v6.5H31.1z"/>
	<path class="st4" d="M39.8,25.6c0,0.6-0.1,1.1-0.3,1.5s-0.5,0.8-0.9,1.1s-0.8,0.5-1.3,0.6s-1,0.2-1.5,0.2c-0.4,0-0.7,0-1-0.1
		s-0.6-0.1-0.8-0.2s-0.4-0.2-0.6-0.3c-0.2-0.1-0.3-0.2-0.4-0.2c-0.1-0.1-0.1-0.2-0.2-0.3c0-0.1,0-0.3,0-0.6c0-0.2,0-0.3,0-0.4
		s0-0.2,0.1-0.3c0-0.1,0.1-0.1,0.1-0.2h0.1c0.1,0,0.2,0,0.3,0.1s0.3,0.2,0.5,0.3s0.5,0.2,0.8,0.3c0.3,0.1,0.7,0.1,1.1,0.1
		c0.3,0,0.5,0,0.7-0.1s0.4-0.2,0.5-0.3c0.1-0.1,0.3-0.3,0.3-0.4c0.1-0.2,0.1-0.4,0.1-0.6s-0.1-0.5-0.2-0.6c-0.1-0.2-0.3-0.3-0.5-0.5
		c-0.2-0.1-0.5-0.3-0.7-0.4s-0.6-0.2-0.8-0.4s-0.6-0.3-0.8-0.5s-0.5-0.4-0.7-0.6s-0.4-0.5-0.5-0.8c-0.1-0.2-0.2-0.6-0.2-1
		c0-0.5,0.1-1,0.3-1.4s0.4-0.7,0.8-1c0.3-0.3,0.7-0.5,1.1-0.6c0.4-0.1,0.9-0.2,1.4-0.2c0.3,0,0.5,0,0.8,0.1s0.5,0.1,0.7,0.2
		s0.4,0.1,0.6,0.2s0.3,0.2,0.3,0.2c0.1,0.1,0.1,0.1,0.1,0.1s0,0.1,0,0.2s0,0.1,0,0.2s0,0.2,0,0.4c0,0.2,0,0.3,0,0.4s0,0.2,0,0.3
		c0,0.1,0,0.1-0.1,0.2h-0.1c0,0-0.2,0-0.3-0.1S38.4,20,38.2,20c-0.2-0.1-0.4-0.2-0.7-0.2c-0.3-0.1-0.5-0.1-0.8-0.1
		c-0.2,0-0.4,0-0.6,0.1c-0.2,0.1-0.3,0.1-0.4,0.2c-0.1,0.1-0.2,0.2-0.3,0.4c-0.1,0.1-0.1,0.3-0.1,0.5s0.1,0.4,0.2,0.6
		c0.1,0.2,0.3,0.3,0.5,0.5c0.2,0.1,0.5,0.3,0.7,0.4s0.6,0.2,0.8,0.4s0.6,0.3,0.8,0.5s0.5,0.4,0.7,0.6s0.4,0.5,0.5,0.8
		S39.8,25.2,39.8,25.6z"/>
	<path class="st4" d="M48.5,19c0,0.2,0,0.3,0,0.4s0,0.2-0.1,0.3s-0.1,0.1-0.1,0.2h-0.1h-2.7v8.7c0,0.1,0,0.1-0.1,0.1
		c0,0-0.1,0.1-0.2,0.1c-0.1,0-0.2,0-0.3,0.1c-0.1,0-0.3,0-0.5,0s-0.4,0-0.5,0s-0.3,0-0.3-0.1c-0.1,0-0.1-0.1-0.2-0.1l-0.1-0.1v-8.7
		h-2.7c-0.1,0-0.1,0-0.1,0s-0.1-0.1-0.1-0.2s0-0.2-0.1-0.3c0-0.1,0-0.3,0-0.4c0-0.2,0-0.3,0-0.4s0-0.2,0.1-0.3s0.1-0.1,0.1-0.1h0.1
		h7.6h0.1l0.1,0.1c0,0,0,0.2,0.1,0.3C48.5,18.7,48.5,18.8,48.5,19z"/>
	<path class="st4" d="M59,23.3c0,0.9-0.1,1.7-0.3,2.4s-0.6,1.3-1,1.8s-1,0.9-1.6,1.1c-0.6,0.3-1.4,0.4-2.2,0.4s-1.6-0.1-2.2-0.3
		c-0.6-0.2-1.1-0.6-1.6-1c-0.4-0.4-0.7-1-0.9-1.7s-0.3-1.5-0.3-2.5c0-0.9,0.1-1.7,0.3-2.3s0.6-1.3,1-1.8s1-0.9,1.6-1.1
		c0.6-0.3,1.4-0.4,2.2-0.4s1.5,0.1,2.2,0.3c0.6,0.2,1.1,0.5,1.6,1c0.4,0.4,0.7,1,0.9,1.7S59,22.4,59,23.3z M56.7,23.4
		c0-0.6,0-1.1-0.1-1.5s-0.2-0.9-0.5-1.2c-0.2-0.3-0.5-0.6-0.9-0.8s-0.8-0.3-1.3-0.3s-1,0.1-1.3,0.3s-0.7,0.5-0.9,0.8
		s-0.4,0.7-0.5,1.2s-0.1,0.9-0.1,1.4c0,0.6,0,1.1,0.1,1.6s0.2,0.9,0.4,1.2s0.5,0.6,0.8,0.8c0.4,0.2,0.8,0.3,1.3,0.3s1-0.1,1.3-0.3
		s0.7-0.5,0.9-0.8s0.4-0.7,0.5-1.2C56.6,24.4,56.7,24,56.7,23.4z"/>
	<path class="st4" d="M73.3,28.5c0,0.1,0,0.1,0,0.1s-0.1,0.1-0.2,0.1s-0.2,0-0.3,0.1c-0.1,0-0.3,0-0.5,0s-0.4,0-0.5,0
		s-0.2,0-0.3-0.1c-0.1,0-0.1-0.1-0.2-0.1s0-0.1,0-0.1v-8.7l0,0l-3.1,8.7c0,0.1-0.1,0.1-0.1,0.2s-0.1,0.1-0.2,0.1s-0.2,0-0.3,0.1
		c-0.1,0-0.3,0-0.5,0s-0.3,0-0.5,0s-0.2,0-0.3-0.1c-0.1,0-0.2-0.1-0.2-0.1S66,28.6,66,28.5l-3-8.7l0,0v8.7c0,0.1,0,0.1,0,0.1
		s-0.1,0.1-0.2,0.1c-0.1,0-0.2,0-0.3,0.1c-0.1,0-0.3,0-0.5,0s-0.4,0-0.5,0s-0.2,0-0.3-0.1c-0.1,0-0.1-0.1-0.2-0.1v-0.1V19
		c0-0.3,0.1-0.5,0.2-0.6c0.1-0.1,0.3-0.2,0.6-0.2h1.4c0.3,0,0.5,0,0.7,0.1c0.2,0,0.3,0.1,0.5,0.2s0.2,0.2,0.3,0.4
		c0.1,0.2,0.2,0.4,0.2,0.6l2.3,6.4l0,0l2.4-6.4c0.1-0.2,0.2-0.4,0.2-0.6c0.1-0.2,0.2-0.3,0.3-0.4c0.1-0.1,0.2-0.2,0.4-0.2
		c0.2,0,0.3-0.1,0.5-0.1h1.5c0.1,0,0.3,0,0.4,0.1c0.1,0,0.2,0.1,0.3,0.2c0.1,0.1,0.1,0.2,0.2,0.3c0,0.1,0.1,0.2,0.1,0.4v9.3H73.3z"
		/>
	<path class="st4" d="M88.3,28c0.1,0.2,0.1,0.4,0.1,0.5s0,0.2-0.1,0.3c-0.1,0.1-0.2,0.1-0.3,0.1s-0.4,0-0.6,0c-0.3,0-0.5,0-0.7,0
		s-0.3,0-0.4,0s-0.1-0.1-0.2-0.1S86,28.7,86,28.6l-0.7-2.2h-4l-0.7,2.1c0,0.1-0.1,0.1-0.1,0.2s-0.1,0.1-0.2,0.1s-0.2,0.1-0.3,0.1
		c-0.1,0-0.3,0-0.6,0c-0.3,0-0.5,0-0.6,0s-0.2-0.1-0.3-0.1s-0.1-0.2-0.1-0.3s0.1-0.3,0.1-0.5l3.3-9.5c0-0.1,0.1-0.2,0.1-0.2
		c0-0.1,0.1-0.1,0.2-0.1s0.2,0,0.4-0.1c0.2,0,0.4,0,0.7,0c0.3,0,0.6,0,0.8,0c0.2,0,0.3,0,0.5,0.1c0.1,0,0.2,0.1,0.2,0.1
		c0,0.1,0.1,0.1,0.1,0.3L88.3,28z M83.4,20.1L83.4,20.1l-1.5,4.6h3L83.4,20.1z"/>
	<path class="st4" d="M96.2,25.6c0,0.6-0.1,1.1-0.3,1.5c-0.2,0.4-0.5,0.8-0.9,1.1c-0.4,0.3-0.8,0.5-1.3,0.6s-1,0.2-1.5,0.2
		c-0.4,0-0.7,0-1-0.1s-0.6-0.1-0.8-0.2s-0.4-0.2-0.6-0.3c-0.2-0.1-0.3-0.2-0.4-0.2c-0.1-0.1-0.1-0.2-0.2-0.3c0-0.1,0-0.3,0-0.6
		c0-0.2,0-0.3,0-0.4s0-0.2,0.1-0.3c0-0.1,0.1-0.1,0.1-0.2h0.1c0.1,0,0.2,0,0.3,0.1c0.1,0.1,0.3,0.2,0.5,0.3s0.5,0.2,0.8,0.3
		c0.3,0.1,0.7,0.1,1.1,0.1c0.3,0,0.5,0,0.7-0.1s0.4-0.2,0.5-0.3c0.1-0.1,0.3-0.3,0.3-0.4c0.1-0.2,0.1-0.4,0.1-0.6s-0.1-0.5-0.2-0.6
		c-0.1-0.2-0.3-0.3-0.5-0.5s-0.5-0.3-0.7-0.4c-0.3-0.1-0.6-0.2-0.8-0.4c-0.3-0.1-0.6-0.3-0.8-0.5c-0.3-0.2-0.5-0.4-0.7-0.6
		s-0.4-0.5-0.5-0.8s-0.2-0.7-0.2-1.2s0.1-1,0.3-1.4c0.2-0.4,0.4-0.7,0.8-1c0.3-0.3,0.7-0.5,1.1-0.6s0.9-0.2,1.4-0.2
		c0.3,0,0.5,0,0.8,0.1c0.3,0,0.5,0.1,0.7,0.2s0.4,0.1,0.6,0.2s0.3,0.2,0.3,0.2c0.1,0.1,0.1,0.1,0.1,0.1s0,0.1,0,0.2s0,0.1,0,0.2
		s0,0.2,0,0.4c0,0.2,0,0.3,0,0.4s0,0.2,0,0.3c0,0.1,0,0.1-0.1,0.2s-0.1,0-0.1,0c-0.1,0-0.2,0-0.3-0.1s-0.3,0-0.5,0
		c-0.2-0.1-0.4-0.2-0.7-0.2c-0.3-0.1-0.5-0.1-0.8-0.1c-0.2,0-0.4,0-0.6,0.1S92.1,19.9,92,20s-0.2,0.2-0.3,0.4
		c-0.1,0.1-0.1,0.3-0.1,0.5s0.1,0.4,0.2,0.6s0.3,0.3,0.5,0.5s0.5,0.3,0.7,0.4c0.3,0.1,0.6,0.2,0.8,0.4c0.3,0.1,0.6,0.3,0.8,0.5
		c0.3,0.2,0.5,0.4,0.7,0.6s0.4,0.5,0.5,0.8S96.2,25.2,96.2,25.6z"/>
	<path class="st4" d="M104.2,25.6c0,0.6-0.1,1.1-0.3,1.5c-0.2,0.4-0.5,0.8-0.9,1.1c-0.4,0.3-0.8,0.5-1.3,0.6s-1,0.2-1.5,0.2
		c-0.4,0-0.7,0-1-0.1s-0.6-0.1-0.8-0.2c-0.2-0.1-0.4-0.2-0.6-0.3c-0.2-0.1-0.3-0.2-0.4-0.2c-0.1-0.1-0.1-0.2-0.2-0.3s0-0.3,0-0.6
		c0-0.2,0-0.3,0-0.4s0-0.2,0.1-0.3c0-0.1,0.1-0.1,0.1-0.2h0.1c0.1,0,0.2,0,0.3,0.1c0.1,0.1,0.3,0.2,0.5,0.3c0.2,0.1,0.5,0.2,0.8,0.3
		c0.3,0.1,0.7,0.1,1.1,0.1c0.3,0,0.5,0,0.7-0.1s0.4-0.2,0.5-0.3c0.1-0.1,0.3-0.3,0.3-0.4c0.1-0.2,0.1-0.4,0.1-0.6s-0.1-0.5-0.2-0.6
		c-0.1-0.2-0.3-0.3-0.5-0.5s-0.5-0.3-0.7-0.4c-0.3-0.1-0.6-0.2-0.8-0.4c-0.3-0.1-0.6-0.3-0.8-0.5c-0.3-0.2-0.5-0.4-0.7-0.6
		s-0.4-0.5-0.5-0.8s-0.2-0.7-0.2-1.2s0.1-1,0.3-1.4c0.2-0.4,0.4-0.7,0.8-1c0.3-0.3,0.7-0.5,1.1-0.6s0.9-0.2,1.4-0.2
		c0.3,0,0.5,0,0.8,0.1c0.3,0,0.5,0.1,0.7,0.2s0.4,0.1,0.6,0.2s0.3,0.2,0.3,0.2c0.1,0.1,0.1,0.1,0.1,0.1s0,0.1,0,0.2s0,0.1,0,0.2
		s0,0.2,0,0.4c0,0.2,0,0.3,0,0.4s0,0.2,0,0.3c0,0.1,0,0.1-0.1,0.2s-0.1,0-0.1,0c-0.1,0-0.2,0-0.3-0.1s-0.3-0.2-0.5-0.3
		c-0.2-0.1-0.4-0.2-0.7-0.2c-0.3-0.1-0.5-0.1-0.8-0.1c-0.2,0-0.4,0-0.6,0.1s-0.3,0.1-0.4,0.2s-0.2,0.2-0.3,0.4
		c-0.1,0.1-0.1,0.3-0.1,0.5s0.1,0.4,0.2,0.6s0.3,0.3,0.5,0.5s0.5,0.3,0.7,0.4c0.3,0.1,0.6,0.2,0.8,0.4c0.3,0.1,0.6,0.3,0.8,0.5
		c0.3,0.2,0.5,0.4,0.7,0.6s0.4,0.5,0.5,0.8S104.2,25.2,104.2,25.6z"/>
	<path class="st4" d="M112.2,28c0,0.2,0,0.3,0,0.4s0,0.2-0.1,0.3c0,0.1-0.1,0.1-0.1,0.1h-0.1h-5.4c-0.2,0-0.3-0.1-0.5-0.2
		c-0.1-0.1-0.2-0.3-0.2-0.5v-9.4c0-0.2,0.1-0.4,0.2-0.5s0.3-0.2,0.5-0.2h5.4h0.1l0.1,0.1c0,0.1,0,0.2,0.1,0.3c0,0.1,0,0.2,0,0.4
		c0,0.2,0,0.3,0,0.4s0,0.2-0.1,0.3c0,0.1-0.1,0.1-0.1,0.1h-0.1H108v2.6h3.2h0.1l0.1,0.1c0,0.1,0,0.1,0.1,0.3c0,0.1,0,0.2,0,0.4
		c0,0.2,0,0.3,0,0.4s0,0.2-0.1,0.3c0,0.1-0.1,0.1-0.1,0.1h-0.1H108v3h3.9h0.1l0.1,0.1c0,0.1,0,0.2,0.1,0.3
		C112.2,27.7,112.2,27.8,112.2,28z"/>
	<path class="st4" d="M121.3,19c0,0.2,0,0.3,0,0.4s0,0.2-0.1,0.3c0,0.1-0.1,0.1-0.1,0.2H121h-2.7v8.7c0,0.1,0,0.1-0.1,0.1
		c0,0-0.1,0.1-0.2,0.1s-0.2,0-0.3,0.1c-0.1,0-0.3,0-0.5,0s-0.4,0-0.5,0s-0.3,0-0.3-0.1c-0.1,0-0.1-0.1-0.2-0.1s-0.1-0.1-0.1-0.1
		v-8.7h-2.7c-0.1,0-0.1,0-0.1,0s-0.1-0.1-0.1-0.2s0-0.2-0.1-0.3c0-0.1,0-0.3,0-0.4c0-0.2,0-0.3,0-0.4s0-0.2,0.1-0.3
		c0-0.1,0.1-0.1,0.1-0.1h0.1h7.6h0.1l0.1,0.1c0,0.1,0,0.2,0.1,0.3C121.3,18.7,121.3,18.8,121.3,19z"/>
	<path class="st4" d="M129.6,27.2c0,0.1,0,0.3,0,0.4s0,0.2,0,0.2s0,0.1-0.1,0.2c0,0-0.1,0.1-0.1,0.2c-0.1,0.1-0.2,0.1-0.4,0.2
		s-0.4,0.2-0.6,0.3c-0.3,0.1-0.5,0.2-0.9,0.2c-0.3,0.1-0.7,0.1-1,0.1c-0.7,0-1.4-0.1-2-0.3c-0.6-0.2-1.1-0.6-1.5-1s-0.7-1-1-1.7
		c-0.2-0.7-0.3-1.5-0.3-2.4s0.1-1.7,0.4-2.4c0.2-0.7,0.6-1.3,1-1.8s1-0.8,1.6-1.1c0.6-0.2,1.3-0.4,2-0.4c0.3,0,0.6,0,0.9,0.1
		c0.3,0,0.5,0.1,0.8,0.2c0.2,0.1,0.4,0.2,0.6,0.3c0.2,0.1,0.3,0.2,0.4,0.3c0.1,0.1,0.1,0.1,0.2,0.2c0,0,0,0.1,0.1,0.2
		c0,0.1,0,0.2,0,0.3c0,0.1,0,0.2,0,0.4c0,0.2,0,0.3,0,0.4s0,0.2-0.1,0.3c0,0.1-0.1,0.1-0.1,0.2l-0.1,0.1c-0.1,0-0.2,0-0.3-0.1
		s-0.3-0.2-0.5-0.3c-0.2-0.1-0.4-0.2-0.7-0.3s-0.6-0.1-1-0.1s-0.8,0.1-1.1,0.3c-0.3,0.2-0.6,0.4-0.9,0.7c-0.2,0.3-0.4,0.7-0.5,1.2
		s-0.2,1-0.2,1.6s0.1,1.2,0.2,1.6s0.3,0.8,0.6,1.1c0.2,0.3,0.5,0.5,0.9,0.7c0.3,0.1,0.7,0.2,1.1,0.2s0.7,0,1-0.1
		c0.3-0.1,0.5-0.2,0.7-0.3c0.2-0.1,0.4-0.2,0.5-0.3c0.1-0.1,0.2-0.1,0.3-0.1s0.1,0,0.1,0l0.1,0.1C129.7,26.9,129.7,27,129.6,27.2
		C129.6,26.8,129.6,27,129.6,27.2z"/>
	<path class="st4" d="M139.6,28.5c0,0.1,0,0.1-0.1,0.1s-0.1,0.1-0.2,0.1c-0.1,0-0.2,0-0.3,0.1c-0.1,0-0.3,0-0.5,0s-0.4,0-0.5,0
		s-0.3,0-0.3-0.1c-0.1,0-0.1-0.1-0.2-0.1s-0.1-0.1-0.1-0.1v-4.3h-4v4.3c0,0.1,0,0.1,0,0.1s-0.1,0.1-0.2,0.1c-0.1,0-0.2,0-0.3,0.1
		c-0.1,0-0.3,0-0.5,0s-0.4,0-0.5,0s-0.3,0-0.3-0.1c-0.1,0-0.1-0.1-0.2-0.1l-0.1-0.1V18.4c0-0.1,0-0.1,0.1-0.1c0,0,0.1-0.1,0.2-0.1
		c0.1,0,0.2-0.1,0.3-0.1s0.3,0,0.5,0s0.4,0,0.5,0s0.2,0,0.3,0.1c0.1,0,0.1,0.1,0.2,0.1s0,0.1,0,0.1v3.9h4v-3.9c0-0.1,0-0.1,0.1-0.1
		s0.1-0.1,0.2-0.1c0.1,0,0.2-0.1,0.3-0.1s0.3,0,0.5,0s0.4,0,0.5,0s0.2,0,0.3,0.1c0.1,0,0.1,0.1,0.2,0.1s0.1,0.1,0.1,0.1V28.5z"/>
	<path class="st4" d="M150.7,28c0.1,0.2,0.1,0.4,0.1,0.5s0,0.2-0.1,0.3c-0.1,0.1-0.2,0.1-0.3,0.1c-0.2,0-0.4,0-0.6,0
		c-0.3,0-0.5,0-0.7,0s-0.3,0-0.4,0c-0.1,0-0.1-0.1-0.2-0.1s-0.1-0.1-0.1-0.2l-0.7-2.2h-4l-0.7,2.1c0,0.1-0.1,0.1-0.1,0.2
		s-0.1,0.1-0.2,0.1c-0.1,0-0.2,0.1-0.3,0.1s-0.3,0-0.6,0s-0.5,0-0.6,0s-0.2-0.1-0.3-0.1c-0.1-0.1-0.1-0.2-0.1-0.3s0.1-0.3,0.1-0.5
		l3.3-9.5c0-0.1,0.1-0.2,0.1-0.2c0-0.1,0.1-0.1,0.2-0.1c0.1,0,0.2,0,0.4-0.1c0.2,0,0.4,0,0.7,0s0.6,0,0.8,0s0.3,0,0.5,0.1
		c0.1,0,0.2,0.1,0.2,0.1c0,0.1,0.1,0.1,0.1,0.3L150.7,28z M145.8,20.1L145.8,20.1l-1.5,4.6h3L145.8,20.1z"/>
	<path class="st4" d="M154.4,28.5c0,0.1,0,0.1-0.1,0.1c0,0-0.1,0.1-0.2,0.1c-0.1,0-0.2,0-0.3,0.1c-0.1,0-0.3,0-0.5,0s-0.4,0-0.5,0
		s-0.3,0-0.3-0.1c-0.1,0-0.1-0.1-0.2-0.1s-0.1-0.1-0.1-0.1V18.4c0-0.1,0-0.1,0.1-0.1s0.1-0.1,0.2-0.1c0.1,0,0.2-0.1,0.3-0.1
		s0.3,0,0.5,0s0.4,0,0.5,0s0.2,0,0.3,0.1c0.1,0,0.1,0.1,0.2,0.1l0.1,0.1V28.5z"/>
	<path class="st4" d="M165.6,28.1c0,0.1,0,0.2-0.1,0.3c0,0.1-0.1,0.2-0.2,0.3c-0.1,0.1-0.2,0.1-0.3,0.1s-0.2,0-0.3,0h-0.9
		c-0.2,0-0.4,0-0.5-0.1c-0.1,0-0.3-0.1-0.4-0.2s-0.2-0.2-0.3-0.4c-0.1-0.2-0.2-0.4-0.4-0.7l-2.7-5c-0.2-0.3-0.3-0.6-0.5-1
		c-0.2-0.3-0.3-0.7-0.4-1l0,0c0,0.4,0,0.8,0,1.2c0,0.4,0,0.8,0,1.2v5.6c0,0.1,0,0.1,0,0.1s-0.1,0.1-0.2,0.1c-0.1,0-0.2,0.1-0.3,0.1
		s-0.3,0-0.5,0s-0.4,0-0.5,0s-0.2,0-0.3-0.1c-0.1,0-0.1-0.1-0.1-0.1v-0.1v-9.7c0-0.3,0.1-0.5,0.2-0.6c0.2-0.1,0.3-0.2,0.6-0.2h1.2
		c0.2,0,0.4,0,0.5,0.1c0.1,0,0.3,0.1,0.4,0.2s0.2,0.2,0.3,0.3s0.2,0.3,0.3,0.5l2.1,3.9c0.1,0.2,0.2,0.5,0.4,0.7
		c0.1,0.2,0.2,0.5,0.3,0.7s0.2,0.5,0.3,0.7s0.2,0.4,0.3,0.7l0,0c0-0.4,0-0.8,0-1.2c0-0.4,0-0.8,0-1.2v-5c0-0.1,0-0.1,0-0.1
		s0.1-0.1,0.2-0.1c0.1,0,0.2-0.1,0.3-0.1s0.3,0,0.5,0s0.3,0,0.5,0c0.1,0,0.2,0,0.3,0.1s0.1,0.1,0.1,0.1v0.1L165.6,28.1L165.6,28.1z"
		/>
</g>
</svg>
