<?xml version="1.0" encoding="utf-8"?>
<!-- Generator: Adobe Illustrator 24.0.2, SVG Export Plug-In . SVG Version: 6.00 Build 0)  -->
<svg version="1.1" id="Слой_1" xmlns="http://www.w3.org/2000/svg" xmlns:xlink="http://www.w3.org/1999/xlink" x="0px" y="0px"
	 viewBox="0 0 180 47" style="enable-background:new 0 0 180 47;" xml:space="preserve">
<style type="text/css">
	.st0{fill:#020202;}
	.st1{fill:url(#SVGID_1_);}
	.st2{fill:#E23B00;}
</style>
<path class="st0" d="M176,42c0,1.7-1.7,3.2-3.7,3.2H7.7c-2,0-3.7-1.4-3.7-3.2V5c0-1.7,1.7-3.2,3.7-3.2h164.5c2,0,3.7,1.4,3.7,3.2v37
	H176z"/>
<linearGradient id="SVGID_1_" gradientUnits="userSpaceOnUse" x1="89.95" y1="45.5554" x2="89.95" y2="4.1842" gradientTransform="matrix(1 0 0 -1 0 48)">
	<stop  offset="0" style="stop-color:#000000"/>
	<stop  offset="1" style="stop-color:#182120"/>
</linearGradient>
<path class="st1" d="M172.3,44.5H7.7c-1.6,0-3-1.1-3-2.5V5c0-1.4,1.3-2.5,3-2.5h164.5c1.6,0,3,1.1,3,2.5v37
	C175.2,43.4,173.9,44.5,172.3,44.5L172.3,44.5z"/>
<path class="st0" d="M101,38H79c-1.9,0-3.4,1.3-3.4,2.9v3.6h28.8v-3.6C104.4,39.3,102.9,38,101,38z"/>
<path class="st2" d="M101,38.3H79c-1.7,0-3,1.1-3,2.6v3.6h28v-3.6C104,39.5,102.7,38.3,101,38.3z"/>
<g>
	<g>
		<path class="st2" d="M56.3,26.8l1.1-1.3c0.7,0.7,1.8,1.2,2.7,1.2c1.2,0,1.8-0.5,1.8-1.4s-0.7-1.1-1.6-1.5l-1.4-0.6
			c-1-0.4-2.1-1.2-2.1-2.8c0-1.7,1.5-3,3.5-3c1.2,0,2.4,0.5,3.2,1.3l-1,1.2c-0.7-0.6-1.4-0.9-2.3-0.9c-1,0-1.6,0.5-1.6,1.2
			c0,0.8,0.8,1.1,1.7,1.5l1.4,0.6c1.2,0.5,2.1,1.3,2.1,2.8c0,1.7-1.4,3.1-3.8,3.1C58.7,28.3,57.3,27.8,56.3,26.8z"/>
		<path class="st2" d="M65.8,17.7h6.3v1.6h-4.4V22h3.8v1.6h-3.8v3.1h4.6v1.6h-6.5V17.7z"/>
		<path class="st2" d="M76.5,19.2h-3v-1.6h7.9v1.6h-3v8.9h-1.9V19.2z"/>
		<path class="st2" d="M85.2,19.2h-3v-1.6h7.9v1.6h-3v8.9h-1.9V19.2z"/>
		<path class="st2" d="M91.8,17.7h1.9v10.5h-1.9V17.7z"/>
		<path class="st2" d="M96.4,17.7h1.9l3.3,5.9l1.1,2.2h0.1c-0.1-1.1-0.2-2.4-0.2-3.6v-4.5h1.8v10.5h-1.9l-3.5-6L98,20h-0.1
			c0.1,1.1,0.2,2.4,0.2,3.5v4.6h-1.8V17.7H96.4z"/>
		<path class="st2" d="M106.3,22.9c0-3.4,2.2-5.5,5-5.5c1.5,0,2.5,0.7,3.2,1.3l-1,1.2c-0.5-0.5-1.1-0.9-2.1-0.9
			c-1.9,0-3.1,1.4-3.1,3.8s1.1,3.8,3.2,3.8c0.6,0,1.2-0.2,1.5-0.5V24h-2v-1.5h3.6v4.6c-0.7,0.7-1.9,1.2-3.3,1.2
			C108.4,28.3,106.3,26.4,106.3,22.9z"/>
		<path class="st2" d="M116.2,26.8l1.1-1.3c0.7,0.7,1.8,1.2,2.7,1.2c1.2,0,1.8-0.5,1.8-1.4s-0.7-1.1-1.6-1.5l-1.4-0.6
			c-1-0.4-2.1-1.2-2.1-2.8c0-1.7,1.5-3,3.5-3c1.2,0,2.4,0.5,3.2,1.3l-1,1.2c-0.7-0.6-1.4-0.9-2.3-0.9c-1,0-1.6,0.5-1.6,1.2
			c0,0.8,0.8,1.1,1.7,1.5l1.4,0.6c1.2,0.5,2.1,1.3,2.1,2.8c0,1.7-1.4,3.1-3.8,3.1C118.5,28.3,117.2,27.8,116.2,26.8z"/>
	</g>
</g>
</svg>
