<?xml version="1.0" encoding="utf-8"?>
<!-- Generator: Adobe Illustrator 24.0.2, SVG Export Plug-In . SVG Version: 6.00 Build 0)  -->
<svg version="1.1" id="Слой_1" xmlns="http://www.w3.org/2000/svg" xmlns:xlink="http://www.w3.org/1999/xlink" x="0px" y="0px"
	 viewBox="0 0 180 47" style="enable-background:new 0 0 180 47;" xml:space="preserve">
<style type="text/css">
	.st0{fill:#020202;}
	.st1{fill:url(#SVGID_1_);}
	.st2{fill:#E23B00;}
</style>
<path class="st0" d="M176,42c0,1.7-1.7,3.2-3.7,3.2H7.7c-2,0-3.7-1.4-3.7-3.2V5c0-1.7,1.7-3.2,3.7-3.2h164.5c2,0,3.7,1.4,3.7,3.2v37
	H176z"/>
<linearGradient id="SVGID_1_" gradientUnits="userSpaceOnUse" x1="89.95" y1="45.5554" x2="89.95" y2="4.1842" gradientTransform="matrix(1 0 0 -1 0 48)">
	<stop  offset="0" style="stop-color:#000000"/>
	<stop  offset="1" style="stop-color:#182120"/>
</linearGradient>
<path class="st1" d="M172.3,44.5H7.7c-1.6,0-3-1.1-3-2.5V5c0-1.4,1.3-2.5,3-2.5h164.5c1.6,0,3,1.1,3,2.5v37
	C175.2,43.4,173.9,44.5,172.3,44.5L172.3,44.5z"/>
<path class="st0" d="M101,38H79c-1.9,0-3.4,1.3-3.4,2.9v3.6h28.8v-3.6C104.4,39.3,102.9,38,101,38z"/>
<path class="st2" d="M101,38.3H79c-1.7,0-3,1.1-3,2.6v3.6h28v-3.6C104,39.5,102.7,38.3,101,38.3z"/>
<g>
	<g>
		<path class="st2" d="M39.9,19.2h-3v-1.6h7.9v1.6h-3v8.9h-1.9V19.2z"/>
		<path class="st2" d="M46.5,17.7H50c2.2,0,3.9,0.8,3.9,3.1s-1.7,3.3-3.9,3.3h-1.7v4.1h-1.9V17.7H46.5z M49.8,22.6
			c1.4,0,2.2-0.6,2.2-1.8c0-1.2-0.8-1.6-2.2-1.6h-1.5v3.4H49.8z M49.7,23.5l1.3-1.1l3.3,5.7h-2.1L49.7,23.5z"/>
		<path class="st2" d="M57.9,17.7h2.2l3.4,10.5h-2l-1.6-5.6c-0.3-1.1-0.6-2.3-0.9-3.5h-0.1c-0.3,1.2-0.6,2.3-0.9,3.5l-1.6,5.6h-1.9
			L57.9,17.7z M56.5,23.8h4.9v1.5h-4.9V23.8z"/>
		<path class="st2" d="M64.7,17.7h1.9l3.3,5.9l1.1,2.2l0,0c-0.1-1.1-0.2-2.4-0.2-3.6v-4.5h1.8v10.5h-1.9l-3.3-5.9L66.3,20h-0.1
			c0.1,1.1,0.2,2.4,0.2,3.5v4.6h-1.8L64.7,17.7L64.7,17.7z"/>
		<path class="st2" d="M74.5,26.8l1.1-1.3c0.7,0.7,1.8,1.2,2.7,1.2c1.2,0,1.8-0.5,1.8-1.4s-0.7-1.1-1.6-1.5L77,23.2
			c-1-0.4-2.1-1.2-2.1-2.8c0-1.7,1.5-3,3.5-3c1.2,0,2.4,0.5,3.2,1.3l-1,1.2c-0.7-0.6-1.4-0.9-2.3-0.9c-1,0-1.6,0.5-1.6,1.2
			c0,0.8,0.8,1.1,1.7,1.5l1.4,0.6c1.2,0.5,2.1,1.3,2.1,2.8c0,1.7-1.4,3.1-3.8,3.1C76.8,28.3,75.5,27.8,74.5,26.8z"/>
		<path class="st2" d="M86,17.7h2.2l3.4,10.5h-2L88,22.6c-0.3-1.1-0.6-2.3-0.9-3.5H87c-0.3,1.2-0.6,2.3-0.9,3.5l-1.6,5.6h-1.9
			L86,17.7z M84.6,23.8h4.9v1.5h-4.9V23.8z"/>
		<path class="st2" d="M92.1,22.9c0-3.4,2.1-5.5,4.8-5.5c1.3,0,2.4,0.6,3,1.3l-1,1.2c-0.5-0.5-1.2-0.9-2-0.9c-1.7,0-2.9,1.4-2.9,3.8
			s1.1,3.8,2.9,3.8c0.9,0,1.6-0.4,2.2-1.1l1,1.2c-0.8,1-1.9,1.5-3.3,1.5C94.2,28.3,92.1,26.4,92.1,22.9z"/>
		<path class="st2" d="M103.8,19.2h-3v-1.6h7.9v1.6h-3v8.9h-1.9V19.2z"/>
		<path class="st2" d="M110.4,17.7h1.9v10.5h-1.9V17.7z"/>
		<path class="st2" d="M114.4,22.9c0-3.4,1.9-5.4,4.6-5.4s4.6,2,4.6,5.4s-1.9,5.5-4.6,5.5S114.4,26.2,114.4,22.9z M121.7,22.9
			c0-2.3-1.1-3.8-2.7-3.8s-2.7,1.4-2.7,3.8s1.1,3.9,2.7,3.9S121.7,25.2,121.7,22.9z"/>
		<path class="st2" d="M125.7,17.7h1.9l3.3,5.9l1.1,2.2h0.1c-0.1-1.1-0.2-2.4-0.2-3.6v-4.5h1.8v10.5h-1.9l-3.3-5.9l-1.1-2.2h-0.1
			c0.1,1.1,0.2,2.4,0.2,3.5v4.6h-1.8L125.7,17.7L125.7,17.7z"/>
		<path class="st2" d="M135.5,26.8l1.1-1.3c0.7,0.7,1.8,1.2,2.7,1.2c1.2,0,1.8-0.5,1.8-1.4s-0.7-1.1-1.6-1.5l-1.4-0.6
			c-1-0.4-2.1-1.2-2.1-2.8c0-1.7,1.5-3,3.5-3c1.2,0,2.4,0.5,3.2,1.3l-1,1.2c-0.7-0.6-1.4-0.9-2.3-0.9c-1,0-1.6,0.5-1.6,1.2
			c0,0.8,0.8,1.1,1.7,1.5l1.4,0.6c1.2,0.5,2.1,1.3,2.1,2.8c0,1.7-1.4,3.1-3.8,3.1C137.8,28.3,136.5,27.8,135.5,26.8z"/>
	</g>
</g>
</svg>
