<?xml version="1.0" encoding="utf-8"?>
<!-- Generator: Adobe Illustrator 24.0.2, SVG Export Plug-In . SVG Version: 6.00 Build 0)  -->
<svg version="1.1" id="Слой_1" xmlns="http://www.w3.org/2000/svg" xmlns:xlink="http://www.w3.org/1999/xlink" x="0px" y="0px"
	 viewBox="0 0 180 47" style="enable-background:new 0 0 180 47;" xml:space="preserve">
<style type="text/css">
	.st0{fill:#020202;}
	.st1{fill:url(#SVGID_1_);}
	.st2{fill:none;}
	.st3{enable-background:new    ;}
	.st4{fill:#BCBBBB;}
</style>
<path class="st0" d="M176,42c0,1.7-1.7,3.2-3.7,3.2H7.7c-2,0-3.7-1.4-3.7-3.2V5c0-1.7,1.7-3.2,3.7-3.2h164.5c2,0,3.7,1.4,3.7,3.2v37
	H176z"/>
<linearGradient id="SVGID_1_" gradientUnits="userSpaceOnUse" x1="89.95" y1="906.4446" x2="89.95" y2="947.8158" gradientTransform="matrix(1 0 0 1 0 -904)">
	<stop  offset="0" style="stop-color:#000000"/>
	<stop  offset="1" style="stop-color:#182120"/>
</linearGradient>
<path class="st1" d="M172.3,44.5H7.7c-1.6,0-3-1.1-3-2.5V5c0-1.4,1.3-2.5,3-2.5h164.5c1.6,0,3,1.1,3,2.5v37
	C175.2,43.4,173.9,44.5,172.3,44.5L172.3,44.5z"/>
<rect x="4" y="16.8" class="st2" width="172" height="19"/>
<g class="st3">
	<path class="st4" d="M75.1,28c0,0.1,0,0.1,0,0.1s-0.1,0.1-0.2,0.1s-0.2,0-0.3,0.1c-0.1,0-0.3,0-0.5,0s-0.4,0-0.5,0s-0.2,0-0.3-0.1
		c-0.1,0-0.1-0.1-0.2-0.1s0-0.1,0-0.1v-8.7l0,0L69.9,28c0,0.1-0.1,0.1-0.1,0.2s-0.1,0.1-0.2,0.1s-0.2,0-0.3,0.1c-0.1,0-0.3,0-0.5,0
		s-0.3,0-0.5,0s-0.2,0-0.3-0.1c-0.1,0-0.2-0.1-0.2-0.1L67.7,28l-3-8.7l0,0V28c0,0.1,0,0.1,0,0.1s-0.1,0.1-0.2,0.1s-0.2,0-0.3,0.1
		c-0.1,0-0.3,0-0.5,0s-0.4,0-0.5,0s-0.2,0-0.3-0.1c-0.1,0-0.1-0.1-0.2-0.1V28v-9.6c0-0.3,0.1-0.5,0.2-0.6c0.1-0.1,0.3-0.2,0.6-0.2
		h1.4c0.3,0,0.5,0,0.7,0.1c0.2,0,0.3,0.1,0.5,0.2s0.2,0.2,0.3,0.4c0.1,0.2,0.2,0.4,0.2,0.6l2.3,6.4l0,0l2.4-6.4
		c0.1-0.2,0.2-0.4,0.2-0.6c0.1-0.2,0.2-0.3,0.3-0.4c0.1-0.1,0.2-0.2,0.4-0.2c0.2,0,0.3-0.1,0.5-0.1h1.5c0.1,0,0.3,0,0.4,0.1
		c0.1,0,0.2,0.1,0.3,0.2c0.1,0.1,0.1,0.2,0.2,0.3c0,0.1,0.1,0.2,0.1,0.4L75.1,28L75.1,28z"/>
	<path class="st4" d="M79.6,28c0,0.1,0,0.1-0.1,0.1c0,0-0.1,0.1-0.2,0.1s-0.2,0-0.3,0.1c-0.1,0-0.3,0-0.5,0s-0.4,0-0.5,0
		s-0.3,0-0.3-0.1c-0.1,0-0.1-0.1-0.2-0.1L77.4,28V17.8c0-0.1,0-0.1,0.1-0.1c0,0,0.1-0.1,0.2-0.1s0.2-0.1,0.3-0.1c0.1,0,0.3,0,0.5,0
		s0.4,0,0.5,0s0.2,0,0.3,0.1c0.1,0,0.1,0.1,0.2,0.1l0.1,0.1V28z"/>
	<path class="st4" d="M90.8,27.5c0,0.1,0,0.2-0.1,0.3s-0.1,0.2-0.2,0.3c-0.1,0.1-0.2,0.1-0.3,0.1c-0.1,0-0.2,0-0.3,0H89
		c-0.2,0-0.4,0-0.5-0.1c-0.1,0-0.3-0.1-0.4-0.2s-0.2-0.2-0.3-0.4c-0.1-0.2-0.2-0.4-0.4-0.7l-2.7-5c-0.2-0.3-0.3-0.6-0.5-1
		s-0.3-0.7-0.4-1l0,0c0,0.4,0,0.8,0,1.2s0,0.8,0,1.2V28c0,0.1,0,0.1,0,0.1s-0.1,0.1-0.2,0.1s-0.2,0.1-0.3,0.1c-0.1,0-0.3,0-0.5,0
		s-0.4,0-0.5,0s-0.2,0-0.3-0.1s-0.1-0.1-0.1-0.1V28v-9.7c0-0.3,0.1-0.5,0.2-0.6c0.2-0.1,0.3-0.2,0.6-0.2h1.2c0.2,0,0.4,0,0.5,0.1
		s0.3,0.1,0.4,0.2s0.2,0.2,0.3,0.3s0.2,0.3,0.3,0.5l2.1,3.9c0.1,0.2,0.2,0.5,0.4,0.7c0.1,0.2,0.2,0.5,0.3,0.7s0.2,0.5,0.3,0.7
		c0.1,0.2,0.2,0.4,0.3,0.7l0,0c0-0.4,0-0.8,0-1.2c0-0.4,0-0.8,0-1.2v-5c0-0.1,0-0.1,0-0.1s0.1-0.1,0.2-0.1s0.2-0.1,0.3-0.1
		s0.3,0,0.5,0s0.3,0,0.5,0s0.2,0,0.3,0.1c0.1,0,0.1,0.1,0.1,0.1v0.1L90.8,27.5L90.8,27.5z"/>
	<path class="st4" d="M95.4,28c0,0.1,0,0.1-0.1,0.1c0,0-0.1,0.1-0.2,0.1s-0.2,0-0.3,0.1c-0.1,0-0.3,0-0.5,0s-0.4,0-0.5,0
		s-0.3,0-0.3-0.1c-0.1,0-0.1-0.1-0.2-0.1S93.2,28,93.2,28V17.8c0-0.1,0-0.1,0.1-0.1s0.1-0.1,0.2-0.1s0.2-0.1,0.3-0.1
		c0.1,0,0.3,0,0.5,0s0.4,0,0.5,0s0.2,0,0.3,0.1c0.1,0,0.1,0.1,0.2,0.1l0.1,0.1C95.4,17.8,95.4,28,95.4,28z"/>
	<path class="st4" d="M106.6,27.5c0,0.1,0,0.2-0.1,0.3c0,0.1-0.1,0.2-0.2,0.3c-0.1,0.1-0.2,0.1-0.3,0.1c-0.1,0-0.2,0-0.3,0h-0.9
		c-0.2,0-0.4,0-0.5-0.1c-0.1,0-0.3-0.1-0.4-0.2s-0.2-0.2-0.3-0.4c-0.1-0.2-0.2-0.4-0.4-0.7l-2.7-5c-0.2-0.3-0.3-0.6-0.5-1
		c-0.2-0.3-0.3-0.7-0.4-1l0,0c0,0.4,0,0.8,0,1.2c0,0.4,0,0.8,0,1.2V28c0,0.1,0,0.1,0,0.1s-0.1,0.1-0.2,0.1s-0.2,0.1-0.3,0.1
		c-0.1,0-0.3,0-0.5,0s-0.4,0-0.5,0s-0.2,0-0.3-0.1c-0.1,0-0.1-0.1-0.1-0.1V28v-9.7c0-0.3,0.1-0.5,0.2-0.6c0.2-0.1,0.3-0.2,0.6-0.2
		h1.2c0.2,0,0.4,0,0.5,0.1c0.1,0,0.3,0.1,0.4,0.2s0.2,0.2,0.3,0.3s0.2,0.3,0.3,0.5l2.1,3.9c0.1,0.2,0.2,0.5,0.4,0.7
		c0.1,0.2,0.2,0.5,0.3,0.7c0.1,0.2,0.2,0.5,0.3,0.7c0.1,0.2,0.2,0.4,0.3,0.7l0,0c0-0.4,0-0.8,0-1.2c0-0.4,0-0.8,0-1.2v-5
		c0-0.1,0-0.1,0-0.1s0.1-0.1,0.2-0.1s0.2-0.1,0.3-0.1c0.1,0,0.3,0,0.5,0s0.3,0,0.5,0c0.1,0,0.2,0,0.3,0.1s0.1,0.1,0.1,0.1v0.1
		L106.6,27.5L106.6,27.5z"/>
	<path class="st4" d="M117.5,19.2c0,0.2,0,0.3,0,0.4s0,0.2-0.1,0.3c0,0.1-0.1,0.1-0.1,0.1h-0.1c-0.1,0-0.2,0-0.3-0.1
		c-0.2-0.1-0.4-0.2-0.6-0.3s-0.6-0.2-1-0.3c-0.4-0.1-0.8-0.1-1.3-0.1s-1,0.1-1.4,0.3c-0.4,0.2-0.8,0.4-1.1,0.8s-0.5,0.7-0.7,1.2
		s-0.2,1-0.2,1.5c0,0.6,0.1,1.2,0.2,1.6s0.4,0.9,0.7,1.2c0.3,0.3,0.6,0.6,1.1,0.7s0.9,0.2,1.4,0.2c0.2,0,0.5,0,0.7-0.1
		s0.5-0.1,0.7-0.2v-2.5h-2c-0.1,0-0.2-0.1-0.2-0.2c-0.1-0.1-0.1-0.3-0.1-0.6c0-0.2,0-0.3,0-0.4s0-0.2,0.1-0.3c0-0.1,0.1-0.1,0.1-0.1
		h0.1h3.6c0.1,0,0.2,0,0.2,0s0.1,0.1,0.2,0.1s0.1,0.1,0.1,0.2s0,0.2,0,0.3v4.3c0,0.2,0,0.3-0.1,0.4s-0.2,0.2-0.4,0.3
		c-0.2,0.1-0.4,0.1-0.7,0.2s-0.5,0.1-0.8,0.2s-0.6,0.1-0.9,0.1s-0.6,0-0.9,0c-0.9,0-1.6-0.1-2.3-0.4c-0.7-0.2-1.3-0.6-1.7-1.1
		c-0.5-0.5-0.8-1-1.1-1.7c-0.2-0.7-0.4-1.4-0.4-2.3s0.1-1.7,0.4-2.4s0.6-1.3,1.1-1.8s1.1-0.9,1.8-1.1c0.7-0.3,1.5-0.4,2.3-0.4
		c0.5,0,0.9,0,1.3,0.1s0.7,0.1,1,0.2s0.5,0.2,0.7,0.3c0.2,0.1,0.3,0.2,0.4,0.3c0.1,0.1,0.1,0.2,0.2,0.3
		C117.5,18.7,117.5,18.9,117.5,19.2z"/>
</g>
</svg>
