<?xml version="1.0" encoding="utf-8"?>
<!-- Generator: Adobe Illustrator 22.0.1, SVG Export Plug-In . SVG Version: 6.00 Build 0)  -->
<svg version="1.1" id="Слой_1" xmlns="http://www.w3.org/2000/svg" xmlns:xlink="http://www.w3.org/1999/xlink" x="0px" y="0px"
	 viewBox="0 0 180 47" style="enable-background:new 0 0 180 47;" xml:space="preserve">
<style type="text/css">
	.st0{fill:#020202;}
	.st1{fill:url(#SVGID_1_);}
	.st2{fill:url(#SVGID_2_);}
	.st3{fill:url(#SVGID_3_);}
	.st4{fill:url(#SVGID_4_);}
	.st5{fill:url(#SVGID_5_);}
	.st6{fill:url(#SVGID_6_);}
	.st7{fill:url(#SVGID_7_);}
	.st8{fill:url(#SVGID_8_);}
	.st9{fill:url(#SVGID_9_);}
	.st10{fill:#FFFFFF;}
	.st11{display:none;fill:#020202;}
	.st12{display:none;fill:url(#SVGID_10_);}
	.st13{fill:#4EB1AD;stroke:#0E0F0F;stroke-width:0.1;stroke-miterlimit:10;}
	.st14{fill:#BCBBBB;}
</style>
<path class="st0" d="M176,42c0,1.7-1.7,3.2-3.7,3.2H7.7c-2,0-3.7-1.4-3.7-3.2V5c0-1.7,1.7-3.2,3.7-3.2h164.5c2,0,3.7,1.4,3.7,3.2V42
	z"/>
<linearGradient id="SVGID_1_" gradientUnits="userSpaceOnUse" x1="89.9955" y1="2.4446" x2="89.9955" y2="43.8158">
	<stop  offset="0" style="stop-color:#000000"/>
	<stop  offset="1" style="stop-color:#182120"/>
</linearGradient>
<path class="st1" d="M172.3,44.5H7.7c-1.6,0-3-1.1-3-2.5V5c0-1.4,1.3-2.5,3-2.5h164.5c1.6,0,3,1.1,3,2.5v37
	C175.2,43.4,173.9,44.5,172.3,44.5L172.3,44.5z"/>
<path class="st11" d="M101,38H79c-1.9,0-3.4,1.3-3.4,2.9v3.6h28.8v-3.6C104.4,39.3,102.9,38,101,38z"/>
<linearGradient id="SVGID_2_" gradientUnits="userSpaceOnUse" x1="89.9955" y1="46.3911" x2="89.9955" y2="41.6552">
	<stop  offset="0" style="stop-color:#3E6367"/>
	<stop  offset="1" style="stop-color:#4FB1A4"/>
</linearGradient>
<path style="display:none;fill:url(#SVGID_2_);" d="M101,38.3H79c-1.7,0-3,1.1-3,2.6v3.6H104v-3.6C104,39.5,102.7,38.3,101,38.3z"/>
<g>
	<path class="st14" d="M71.7,26.8l1.1-1.3c0.7,0.7,1.8,1.2,2.7,1.2c1.2,0,1.8-0.5,1.8-1.4c0-0.9-0.7-1.1-1.6-1.5l-1.4-0.6
		c-1-0.4-2.1-1.2-2.1-2.8c0-1.7,1.5-3,3.5-3c1.2,0,2.4,0.5,3.2,1.3L78,20c-0.7-0.6-1.4-0.9-2.3-0.9c-1,0-1.6,0.5-1.6,1.2
		c0,0.8,0.8,1.1,1.7,1.5l1.4,0.6c1.2,0.5,2.1,1.3,2.1,2.8c0,1.7-1.4,3.1-3.8,3.1C74.1,28.3,72.7,27.8,71.7,26.8z"/>
	<path class="st14" d="M81.1,17.7h6.3v1.6H83v2.7h3.8v1.6H83v3.1h4.6v1.6h-6.5V17.7z"/>
	<path class="st14" d="M89.7,17.7h1.9l3.3,5.9l1.1,2.2H96c-0.1-1.1-0.2-2.4-0.2-3.6v-4.5h1.8v10.5h-1.9l-3.3-5.9L91.3,20h-0.1
		c0.1,1.1,0.2,2.4,0.2,3.5v4.6h-1.8V17.7z"/>
	<path class="st14" d="M100.2,17.7h2.8c3.2,0,5.1,1.7,5.1,5.2s-1.9,5.3-5,5.3h-2.9V17.7z M102.9,26.6c2.1,0,3.3-1.2,3.3-3.8
		c0-2.6-1.2-3.7-3.3-3.7h-0.8v7.5H102.9z"/>
</g>
</svg>
