<?xml version="1.0" encoding="utf-8"?>
<!-- Generator: Adobe Illustrator 22.0.1, SVG Export Plug-In . SVG Version: 6.00 Build 0)  -->
<svg version="1.1" id="Слой_1" xmlns="http://www.w3.org/2000/svg" xmlns:xlink="http://www.w3.org/1999/xlink" x="0px" y="0px"
	 viewBox="0 0 273 273" style="enable-background:new 0 0 273 273;" xml:space="preserve">
<style type="text/css">
	.st0{fill:url(#SVGID_1_);}
	.st1{fill:url(#SVGID_2_);}
	.st2{fill:url(#SVGID_3_);}
	.st3{fill:url(#SVGID_4_);}
	.st4{fill:url(#SVGID_5_);}
	.st5{fill:url(#SVGID_6_);}
</style>
<linearGradient id="SVGID_1_" gradientUnits="userSpaceOnUse" x1="3.7" y1="118.8" x2="270.3131" y2="118.8" gradientTransform="matrix(1 0 0 -1 0 274)">
	<stop  offset="0" style="stop-color:#007C6C"/>
	<stop  offset="1" style="stop-color:#003F37"/>
</linearGradient>
<path class="st0" d="M269.7,153c-0.5-0.8-12.1-18.9-34.2-37.3c-13-10.8-27-19.4-41.5-25.6c-18.2-7.7-37.4-11.7-56.9-11.7
	s-38.7,3.9-56.9,11.7c-14.5,6.2-28.5,14.8-41.5,25.6C16.4,134.1,4.8,152.2,4.3,153c-0.8,1.3-0.8,3,0,4.4
	c0.5,0.8,12.1,18.9,34.2,37.3c13,10.8,27,19.4,41.5,25.6c18.2,7.7,37.4,11.7,56.9,11.7c13.1,0,26.1-1.8,38.7-5.3
	c2.1-0.6,3.3-2.8,2.8-4.9c-0.6-2.1-2.7-3.4-4.8-2.8c-11.9,3.3-24.2,5-36.6,5c-41.9,0-73.9-19.2-93.3-35.3
	c-16.9-14-27.6-28.1-31.3-33.4c3.7-5.3,14.4-19.4,31.3-33.4c19.5-16.1,51.5-35.3,93.3-35.3s73.9,19.2,93.4,35.3
	c16.9,14,27.6,28.1,31.3,33.4c-6.1,8.6-30.6,40.6-70.8,57.6c-2,0.8-2.9,3.2-2.1,5.2c0.8,2,3.1,3,5.1,2.2
	c25.5-10.8,44.7-27.3,56.4-39.2c12.6-12.9,19.2-23.2,19.5-23.7C270.5,156,270.5,154.3,269.7,153z"/>
<linearGradient id="SVGID_2_" gradientUnits="userSpaceOnUse" x1="78.8" y1="118.8" x2="195.2" y2="118.8" gradientTransform="matrix(1 0 0 -1 0 274)">
	<stop  offset="0" style="stop-color:#007C6C"/>
	<stop  offset="1" style="stop-color:#003F37"/>
</linearGradient>
<path class="st1" d="M137,95.6c-32.1,0-58.2,26.7-58.2,59.6s26.1,59.6,58.2,59.6s58.2-26.7,58.2-59.6S169.1,95.6,137,95.6z
	 M137,206.7c-27.8,0-50.4-23.1-50.4-51.6c0-28.4,22.6-51.6,50.4-51.6s50.4,23.1,50.4,51.6S164.8,206.7,137,206.7z"/>
<linearGradient id="SVGID_3_" gradientUnits="userSpaceOnUse" x1="120.561" y1="118.8" x2="153.4385" y2="118.8" gradientTransform="matrix(1 0 0 -1 0 274)">
	<stop  offset="0" style="stop-color:#007C6C"/>
	<stop  offset="1" style="stop-color:#003F37"/>
</linearGradient>
<path class="st2" d="M137,138.4c-9.1,0-16.4,7.6-16.4,16.8S127.9,172,137,172s16.4-7.6,16.4-16.8S146.1,138.4,137,138.4z M137,164
	c-4.7,0-8.6-4-8.6-8.8s3.9-8.8,8.6-8.8c4.7,0,8.6,4,8.6,8.8S141.7,164,137,164z"/>
<linearGradient id="SVGID_4_" gradientUnits="userSpaceOnUse" x1="133.0854" y1="227.8" x2="140.9141" y2="227.8" gradientTransform="matrix(1 0 0 -1 0 274)">
	<stop  offset="0" style="stop-color:#007C6C"/>
	<stop  offset="1" style="stop-color:#003F37"/>
</linearGradient>
<path class="st3" d="M137,56.6c2.2,0,3.9-1.8,3.9-4V39.8c0-2.2-1.8-4-3.9-4c-2.2,0-3.9,1.8-3.9,4v12.8
	C133.1,54.8,134.8,56.6,137,56.6z"/>
<linearGradient id="SVGID_5_" gradientUnits="userSpaceOnUse" x1="76.7258" y1="213.2299" x2="90.8059" y2="213.2299" gradientTransform="matrix(1 0 0 -1 0 274)">
	<stop  offset="0" style="stop-color:#007C6C"/>
	<stop  offset="1" style="stop-color:#003F37"/>
</linearGradient>
<path class="st4" d="M83.5,68.4c1.2,2,3.9,2.6,5.7,1.2c1.6-1.2,2-3.5,1.1-5.2L84,53.2c-1.1-1.9-3.5-2.6-5.3-1.5
	c-1.9,1.1-2.5,3.6-1.4,5.5L83.5,68.4z"/>
<linearGradient id="SVGID_6_" gradientUnits="userSpaceOnUse" x1="183.1738" y1="213.25" x2="197.2655" y2="213.25" gradientTransform="matrix(1 0 0 -1 0 274)">
	<stop  offset="0" style="stop-color:#007C6C"/>
	<stop  offset="1" style="stop-color:#003F37"/>
</linearGradient>
<path class="st5" d="M185.1,69.8c1.8,1.1,4.3,0.4,5.3-1.5l6.3-11.1c1.1-1.9,0.4-4.4-1.4-5.5c-1.9-1.1-4.3-0.4-5.3,1.5l-6.3,11.1
	C182.6,66.3,183.3,68.7,185.1,69.8z"/>
</svg>
