<?xml version="1.0" encoding="utf-8"?>
<!-- Generator: Adobe Illustrator 22.0.1, SVG Export Plug-In . SVG Version: 6.00 Build 0)  -->
<svg version="1.1" id="Слой_1" xmlns="http://www.w3.org/2000/svg" xmlns:xlink="http://www.w3.org/1999/xlink" x="0px" y="0px"
	 viewBox="0 0 277 277" style="enable-background:new 0 0 277 277;" xml:space="preserve">
<style type="text/css">
	.st0{fill:url(#SVGID_1_);}
	.st1{fill:url(#SVGID_2_);}
	.st2{fill:url(#SVGID_3_);}
</style>
<linearGradient id="SVGID_1_" gradientUnits="userSpaceOnUse" x1="65.3" y1="139.5" x2="211.1" y2="139.5" gradientTransform="matrix(1 0 0 -1 0 278)">
	<stop  offset="0" style="stop-color:#007C6C"/>
	<stop  offset="1" style="stop-color:#003F37"/>
</linearGradient>
<path class="st0" d="M208.3,185.6c1.7-0.8,2.8-2.6,2.8-4.5v-59.9c0-2.8-2.2-5-5-5s-5,2.2-5,5v56.7l-57.9,27.6v-74l65-31
	c2.5-1.2,3.5-4.2,2.4-6.7c-0.4-0.8-1-1.5-1.8-1.9c-0.2-0.2-0.4-0.3-0.6-0.4l-67.9-32.3c-1.4-0.6-2.9-0.6-4.3,0L68.2,91.4
	c-0.1,0-0.1,0.1-0.2,0.1c-0.1,0.1-0.2,0.1-0.4,0.2c-1.4,0.9-2.3,2.5-2.3,4.2V181c0,1.9,1.1,3.7,2.8,4.5l67.9,32.3
	c1.3,0.6,2.9,0.6,4.2,0h0.1L208.3,185.6z M75.4,103.9l20.9,10c2.5,1.2,5.4,0.1,6.6-2.4s0.1-5.4-2.3-6.6l-18.6-9l56.3-26.8l56.3,26.8
	l-56.3,26.8l-17.5-8.3c-2.5-1.2-5.4-0.1-6.6,2.4s-0.1,5.4,2.3,6.6l16.8,8v74.1l-57.9-27.6V103.9z"/>
<linearGradient id="SVGID_2_" gradientUnits="userSpaceOnUse" x1="136.7504" y1="147.8318" x2="262.1399" y2="147.8318" gradientTransform="matrix(1 0 0 -1 0 278)">
	<stop  offset="0" style="stop-color:#007C6C"/>
	<stop  offset="1" style="stop-color:#003F37"/>
</linearGradient>
<path class="st1" d="M157.8,16.3l12.4-7c2.4-1.3,3.3-4.4,1.9-6.8c-1.3-2.4-4.4-3.3-6.8-1.9l-26,14.5c-1.3,0.7-2.3,2.1-2.5,3.6
	s0.2,3,1.3,4.2l20.6,22.2c1.2,1.4,3,2,4.8,1.6s3.2-1.7,3.7-3.4s0.1-3.6-1.2-4.9l-11.4-12.3c54.5,8.1,95.5,54,97.3,109.1
	s-36,103.6-89.8,115.3c-2.5,0.5-4.2,2.9-3.9,5.4s2.4,4.5,5,4.5c0.4,0,0.7,0,1.1-0.1c58.3-12.6,99.3-65,97.8-124.6
	C260.5,75.9,216.7,25.8,157.8,16.3L157.8,16.3z"/>
<linearGradient id="SVGID_3_" gradientUnits="userSpaceOnUse" x1="14.4656" y1="131.1617" x2="139.7496" y2="131.1617" gradientTransform="matrix(1 0 0 -1 0 278)">
	<stop  offset="0" style="stop-color:#007C6C"/>
	<stop  offset="1" style="stop-color:#003F37"/>
</linearGradient>
<path class="st2" d="M117.8,231.9c-1.2-1.3-3-1.9-4.8-1.5c-1.7,0.4-3.1,1.7-3.7,3.4c-0.5,1.7-0.1,3.6,1.1,4.9l11.4,12.3
	c-54.7-8.1-95.7-54.2-97.4-109.5c-1.6-55.2,36.7-103.7,90.8-115c2.7-0.6,4.4-3.2,3.9-5.9c-0.6-2.7-3.2-4.4-5.9-3.9
	C54.6,28.9,13.1,81.2,14.5,141s45.2,110.1,104.3,119.7l-12.5,7c-2.4,1.3-3.3,4.4-1.9,6.8c1.3,2.4,4.4,3.3,6.8,1.9l26-14.5
	c1.3-0.7,2.3-2.1,2.5-3.6s-0.2-3-1.3-4.2L117.8,231.9z"/>
</svg>
