<?xml version="1.0" encoding="utf-8"?>
<!-- Generator: Adobe Illustrator 22.0.1, SVG Export Plug-In . SVG Version: 6.00 Build 0)  -->
<svg version="1.1" id="Слой_1" xmlns="http://www.w3.org/2000/svg" xmlns:xlink="http://www.w3.org/1999/xlink" x="0px" y="0px"
	 viewBox="0 0 277 277" style="enable-background:new 0 0 277 277;" xml:space="preserve">
<style type="text/css">
	.st0{fill:url(#SVGID_1_);}
	.st1{fill:url(#SVGID_2_);}
</style>
<linearGradient id="SVGID_1_" gradientUnits="userSpaceOnUse" x1="21.4131" y1="139.475" x2="255.9" y2="139.475" gradientTransform="matrix(1 0 0 -1 0 278)">
	<stop  offset="0" style="stop-color:#007C6C"/>
	<stop  offset="1" style="stop-color:#003F37"/>
</linearGradient>
<path class="st0" d="M253.5,54.2c-0.2-0.1-0.3-0.2-0.5-0.2l0,0L140.8,0.5c-1.4-0.6-2.9-0.6-4.3,0L24.3,53.9V54
	c-1,0.5-1.9,1.3-2.4,2.3c-1.2,2.5-0.1,5.5,2.4,6.7l109.4,52v129.6L31.5,196V88.1c0-2.8-2.2-5-5-5s-5,2.2-5,5v111
	c0,1.9,1.1,3.7,2.8,4.5L136.5,257c1.3,0.7,2.9,0.7,4.2,0h0.1l19.5-9.3V272c0,2.8,2.2,5,5,5h66.2c2.8,0,5-2.2,5-5v-60.5l16.6-7.9
	c1.7-0.8,2.8-2.6,2.8-4.5V58.4C255.8,56.7,255,55.1,253.5,54.2z M226.4,267h-56.2v-56.2h56.2V267z M245.9,195.9l-11.9,5.7
	c-0.7-0.5-1.6-0.8-2.5-0.8h-50.1v-21.6c0-9.4,7.6-17,17-17s17,7.6,17,17c0,2.8,2.2,5,5,5s5-2.2,5-5c0-14.9-12.1-27-27-27
	s-27,12.1-27,27v21.6h-6.1c-2.8,0-5,2.2-5,5v30.9l-16.6,7.9V111.8c0-1.9-1.1-3.7-2.8-4.5L38.1,58.4l100.6-47.9l100.6,47.9
	l-71.6,34.1c-2.5,1.2-3.5,4.2-2.4,6.7c1.2,2.5,4.2,3.5,6.7,2.4l73.9-35.2V195.9z"/>
<linearGradient id="SVGID_2_" gradientUnits="userSpaceOnUse" x1="193.3" y1="38.55" x2="203.3" y2="38.55" gradientTransform="matrix(1 0 0 -1 0 278)">
	<stop  offset="0" style="stop-color:#007C6C"/>
	<stop  offset="1" style="stop-color:#003F37"/>
</linearGradient>
<path class="st1" d="M198.3,258.3c2.8,0,5-2.2,5-5v-27.7c0-2.8-2.2-5-5-5s-5,2.2-5,5v27.7C193.3,256,195.6,258.3,198.3,258.3z"/>
</svg>
