<?xml version="1.0" encoding="utf-8"?>
<!-- Generator: Adobe Illustrator 22.0.1, SVG Export Plug-In . SVG Version: 6.00 Build 0)  -->
<svg version="1.1" id="Слой_1" xmlns="http://www.w3.org/2000/svg" xmlns:xlink="http://www.w3.org/1999/xlink" x="0px" y="0px"
	 viewBox="0 0 274 274" style="enable-background:new 0 0 274 274;" xml:space="preserve">
<style type="text/css">
	.st0{fill:url(#SVGID_1_);}
</style>
<linearGradient id="SVGID_1_" gradientUnits="userSpaceOnUse" x1="0" y1="136.402" x2="274" y2="136.402" gradientTransform="matrix(1 0 0 -1 0 274)">
	<stop  offset="0" style="stop-color:#007C6C"/>
	<stop  offset="1" style="stop-color:#003F37"/>
</linearGradient>
<path class="st0" d="M269,115h-42.2c-2.8,0-5,2.2-5,5s2.2,5,5,5h23L137,188.1L24.1,124.9h50.3c15.5,21.6,41,33.7,67.6,32
	c26.5-1.7,50.3-17,62.9-40.4c0-0.1,0.1-0.2,0.1-0.2c17.4-32.3,9.7-72.4-18.5-96c-28.2-23.5-69.1-23.9-97.7-1
	c-28.7,23-37.3,63-20.5,95.7H5c-2.8,0-5,2.2-5,5v147.8c0,2.8,2.2,5,5,5h264c2.8,0,5-2.2,5-5V120C274,117.2,271.8,115,269,115z
	 M137,12.6c22.5,0,43.5,11.2,56,29.9s14.7,42.4,6.1,63.2c-11.8-11.2-26.5-19-42.4-22.6c8.7-8.1,11.6-20.7,7.3-31.8
	c-4.4-11-15.1-18.3-27-18.3s-22.6,7.3-26.9,18.4s-1.5,23.7,7.3,31.8c-8.6,1.9-16.8,5.1-24.5,9.4C90.5,94,89.6,97,91,99.4
	s4.4,3.3,6.8,1.9c31.6-17.8,71.2-12.1,96.5,13.8c-16.9,27.6-51.2,39.2-81.4,27.6S65,99.4,70.9,67.5C76.8,35.7,104.6,12.6,137,12.6z
	 M118,61.9c0-10.4,8.5-18.9,19-18.9s18.9,8.5,18.9,18.9c0,10.5-8.5,18.9-18.9,18.9C126.5,80.9,118.1,72.4,118,61.9z M264,257.2
	l-93.2-76.6l93.2-52.2V257.2z M137,198.8c0.9,0,1.7-0.2,2.4-0.6l22-12.3l93.6,76.9H18.9l75-61.6c2.1-1.8,2.4-4.9,0.6-7
	c-1.7-2.1-4.8-2.4-7-0.7L10,257.2V128.5l124.6,69.7C135.3,198.6,136.2,198.8,137,198.8z"/>
</svg>
