<?xml version="1.0" encoding="utf-8"?>
<!-- Generator: Adobe Illustrator 22.0.1, SVG Export Plug-In . SVG Version: 6.00 Build 0)  -->
<svg version="1.1" id="Слой_1" xmlns="http://www.w3.org/2000/svg" xmlns:xlink="http://www.w3.org/1999/xlink" x="0px" y="0px"
	 viewBox="0 0 273 273" style="enable-background:new 0 0 273 273;" xml:space="preserve">
<style type="text/css">
	.st0{fill:url(#SVGID_1_);}
	.st1{fill:url(#SVGID_2_);}
	.st2{fill:url(#SVGID_3_);}
</style>
<linearGradient id="SVGID_1_" gradientUnits="userSpaceOnUse" x1="143.5" y1="211.8125" x2="254.3" y2="211.8125" gradientTransform="matrix(1 0 0 -1 0 274)">
	<stop  offset="0" style="stop-color:#007C6C"/>
	<stop  offset="1" style="stop-color:#003F37"/>
</linearGradient>
<path class="st0" d="M146.3,98.3l50.4,24c1.3,0.7,2.9,0.7,4.2,0c0,0,0,0,0.1,0l50.4-24c1.7-0.8,2.8-2.6,2.9-4.5V30.5
	c0-1.7-0.9-3.3-2.3-4.2c-0.2-0.1-0.3-0.2-0.5-0.2l0,0L201,2c-1.4-0.6-2.9-0.6-4.3,0l-50.4,24v0.1c-0.2,0.1-0.3,0.1-0.5,0.2
	c-1.4,0.9-2.3,2.5-2.3,4.2v63.2C143.5,95.7,144.6,97.4,146.3,98.3z M193.9,109.9l-40.5-19.3V38.4l40.5,19.3V109.9z M198.9,12
	l38.8,18.5L217,40.4c-1.6,0.7-2.8,2.3-2.9,4.1c-0.2,1.8,0.7,3.5,2.2,4.6c1.5,1,3.4,1.1,5,0.3l23-11v52.2l-40.5,19.3V54.5
	c0-1.9-1.1-3.7-2.8-4.5l-41-19.5L198.9,12z"/>
<linearGradient id="SVGID_2_" gradientUnits="userSpaceOnUse" x1="65" y1="70.9142" x2="273.2" y2="70.9142" gradientTransform="matrix(1 0 0 -1 0 274)">
	<stop  offset="0" style="stop-color:#007C6C"/>
	<stop  offset="1" style="stop-color:#003F37"/>
</linearGradient>
<path class="st1" d="M267.8,137.3c-6.6-6.1-16.8-5.9-23.2,0.5l-35.5,33.7c-2,1.9-4.6,2.9-7.3,2.8l-36.3-0.6c-0.3,0-0.5-0.2-0.6-0.5
	c0-0.2,0.1-0.3,0.2-0.4c0.1-0.1,0.3-0.2,0.4-0.2l20.8,0.1c6.4,0.2,12.4-3,15.8-8.4c3.9-5.1,4.9-11.9,2.6-17.9
	c-2.1-4.1-6.4-6.7-11.1-6.7l-39.6-0.3c-13.3,0-26,5-35.7,14.1l-22.5,21.3l-5.6-6c-1.1-1.2-2.7-1.9-4.3-1.9c-1.6,0-3.2,0.6-4.3,1.7
	l-14.7,13.9c-1.2,1.1-1.9,2.6-1.9,4.3c0,1.6,0.6,3.2,1.7,4.4l56.3,59.4l-14.7,14.1c-2,1.9-2,5.1-0.1,7.1s5.1,2,7.1,0.1l14.6-14.1
	l5.9,6.2c1.1,1.2,2.6,1.9,4.3,1.9h0.2c1.6,0,3.1-0.6,4.2-1.7l14.7-13.9c2.4-2.3,2.5-6.2,0.2-8.6L102.8,182l22.5-21.3
	c7.8-7.3,18.1-11.4,28.8-11.4l39.4,0.2c2,0.1,2.3,0.8,2.4,1.1c0.6,2.8,0,5.7-1.8,7.9c-1.5,2.5-4.1,4-6.9,4.1c-0.1,0-0.3,0-0.4,0
	l-21-0.1h-0.1c-5.8,0.1-10.4,4.7-10.5,10.5c0,5.8,4.5,10.5,10.3,10.6l36.3,0.6c5.3,0.1,10.5-1.9,14.3-5.6l35.5-33.7
	c2.6-2.6,6.7-2.8,9.5-0.5c1.3,1.2,2.1,3,2.1,4.8s-0.7,3.5-2.1,4.8l-38.6,36.6c-5.2,4.9-11.5,8.7-18.3,10.9l-43.3,14.1
	c-2.6,0.9-4.1,3.7-3.2,6.3c0.9,2.6,3.7,4.1,6.3,3.2l43.3-14.1c8.2-2.7,15.8-7.2,22.1-13.2l38.6-36.6c3.3-3.1,5.1-7.4,5.2-12
	C273,144.8,271.1,140.5,267.8,137.3z M140.3,254.4l-63.7-67.2l9-8.6l6.4,6.7l57.3,60.5L140.3,254.4z"/>
<linearGradient id="SVGID_3_" gradientUnits="userSpaceOnUse" x1="-2.500001e-02" y1="33.2161" x2="67.4647" y2="33.2161" gradientTransform="matrix(1 0 0 -1 0 274)">
	<stop  offset="0" style="stop-color:#007C6C"/>
	<stop  offset="1" style="stop-color:#003F37"/>
</linearGradient>
<path class="st2" d="M59,209.8L1.4,264.7c-1.9,1.9-1.9,5,0,6.9c1.8,1.9,4.9,2.1,6.9,0.3L65.9,217c2-1.9,2.1-5.1,0.2-7.1
	C64.2,208,61,207.9,59,209.8z"/>
</svg>
