<?xml version="1.0" encoding="utf-8"?>
<!-- Generator: Adobe Illustrator 24.0.2, SVG Export Plug-In . SVG Version: 6.00 Build 0)  -->
<svg version="1.0" id="Слой_1" xmlns="http://www.w3.org/2000/svg" xmlns:xlink="http://www.w3.org/1999/xlink" x="0px" y="0px"
	 viewBox="0 0 141.7 141.7" enable-background="new 0 0 141.7 141.7" xml:space="preserve">
<linearGradient id="SVGID_1_" gradientUnits="userSpaceOnUse" x1="9.094947e-13" y1="70.85" x2="57.8948" y2="70.85">
	<stop  offset="0" style="stop-color:#585858"/>
	<stop  offset="0.1742" style="stop-color:#414141"/>
	<stop  offset="0.4571" style="stop-color:#212121"/>
	<stop  offset="0.695" style="stop-color:#0D0D0D"/>
	<stop  offset="0.8575" style="stop-color:#060606"/>
</linearGradient>
<path fill="url(#SVGID_1_)" stroke="#E23A00" stroke-width="3" stroke-miterlimit="10" d="M57.5,42.8c0.5-0.5,0.5-1.4,0-1.9
	L44.4,27.8c-0.5-0.5-1.4-0.5-1.9,0L0.4,69.9c-0.5,0.5-0.5,1.4,0,1.9l42.1,42.1c0.5,0.5,1.4,0.5,1.9,0l13.1-13.1
	c0.5-0.5,0.5-1.4,0-1.9L30.4,71.8c-0.5-0.5-0.5-1.4,0-1.9L57.5,42.8L57.5,42.8z"/>
<linearGradient id="SVGID_2_" gradientUnits="userSpaceOnUse" x1="54.8365" y1="70.8288" x2="141.7" y2="70.8288">
	<stop  offset="0" style="stop-color:#585858"/>
	<stop  offset="0.1742" style="stop-color:#414141"/>
	<stop  offset="0.4571" style="stop-color:#212121"/>
	<stop  offset="0.695" style="stop-color:#0D0D0D"/>
	<stop  offset="0.8575" style="stop-color:#060606"/>
</linearGradient>
<path fill="url(#SVGID_2_)" stroke="#E23A00" stroke-width="3" stroke-miterlimit="10" d="M99.2,27.8c-0.5-0.5-1.4-0.5-1.9,0
	L55.2,69.8c-0.5,0.5-0.5,1.4,0,1.9l13.1,13.1c0.5,0.5,1.4,0.5,1.9,0l27.1-27.1c0.5-0.5,1.4-0.5,1.9,0l12.1,12.1
	c0.5,0.5,0.5,1.4,0,1.9L84.2,98.9c-0.5,0.5-0.5,1.4,0,1.9l13.1,13.1c0.5,0.5,1.4,0.5,1.9,0l42.1-42.1c0.5-0.5,0.5-1.4,0-1.9
	L99.2,27.8L99.2,27.8z"/>
</svg>
