<?xml version="1.0" encoding="utf-8"?>
<!-- Generator: Adobe Illustrator 24.0.2, SVG Export Plug-In . SVG Version: 6.00 Build 0)  -->
<svg version="1.1" id="Слой_1" xmlns="http://www.w3.org/2000/svg" xmlns:xlink="http://www.w3.org/1999/xlink" x="0px" y="0px"
	 viewBox="0 0 74 44" style="enable-background:new 0 0 74 44;" xml:space="preserve">
<style type="text/css">
	.st0{fill-rule:evenodd;clip-rule:evenodd;fill:#E23B00;}
</style>
<g>
	<g>
		<g>
			<g>
				
					<image style="overflow:visible;" width="79" height="49" xlink:href="E16CE68E.png"  transform="matrix(1 0 0 1 -2.488 -2.5093)">
				</image>
			</g>
			<g>
				<path id="b_10_" class="st0" d="M61.1,5c4.3,0,7.9,4,7.9,8.9v15.8c0,4.9-3.5,8.9-7.9,8.9H12.9c-4.3,0-7.9-4-7.9-8.9V13.9
					C5,9,8.5,5,12.9,5H61.1L61.1,5z M60.4,8.7H14.3c-3.8,0-5.6,1.5-5.6,5.3v16.1c0,3.9,1.8,4.9,5.6,4.9h46.2c3.8,0,4.9-1.1,4.9-4.9
					V14C65.3,10.1,64.3,8.7,60.4,8.7L60.4,8.7z"/>
			</g>
		</g>
		<g>
			<g>
				
					<image style="overflow:visible;" width="27" height="27" xlink:href="E16CE692.png"  transform="matrix(1 0 0 1 6.9175 8.6596)">
				</image>
			</g>
			<g>
				<path id="d_10_" class="st0" d="M23.8,24.1l1.7,1.8l-2.9,2.2l-1.2-2.2c-0.2-0.3-0.4-0.9-0.8-1.8c-0.4,1-0.7,1.6-0.8,1.8
					l-1.2,2.2l-3-2.2l1.8-1.8c0.5-0.5,1-0.9,1.5-1.3c-0.7-0.1-1.3-0.2-1.9-0.3l-2.5-0.4l1.2-3.4l2.2,1c0.2,0.1,0.8,0.4,1.8,1
					c-0.2-0.9-0.3-1.6-0.4-2l-0.3-2.5h3.5l-0.3,2.5c-0.1,0.6-0.2,1.3-0.4,2c0.4-0.2,0.7-0.3,0.8-0.4c0.4-0.3,0.8-0.4,1-0.5l2.2-1.1
					l1.1,3.4l-2.5,0.5c-0.5,0.1-1.1,0.1-2,0.2C23,23.3,23.5,23.7,23.8,24.1z"/>
			</g>
		</g>
		<g>
			<g>
				
					<image style="overflow:visible;" width="27" height="27" xlink:href="E16CE695.png"  transform="matrix(1 0 0 1 23.2753 8.6651)">
				</image>
			</g>
			<g>
				<path id="f_10_" class="st0" d="M40.2,24.1l1.7,1.8L39,28.1l-1.2-2.2c-0.2-0.3-0.4-0.9-0.8-1.8c-0.4,1-0.7,1.6-0.8,1.8l-1.2,2.2
					l-3-2.2l1.8-1.8c0.5-0.5,1-0.9,1.5-1.3c-0.7-0.1-1.3-0.2-1.9-0.3l-2.5-0.4l1.2-3.4l2.2,1c0.2,0.1,0.8,0.4,1.7,1
					c-0.2-0.9-0.3-1.6-0.4-2l-0.3-2.5h3.5l-0.3,2.5c-0.1,0.7-0.2,1.4-0.4,2c0.4-0.2,0.7-0.3,0.8-0.4c0.4-0.3,0.8-0.4,1-0.5l2.2-1.1
					l1.1,3.4l-2.5,0.5c-0.5,0.1-1.1,0.1-2,0.2C39.4,23.3,39.8,23.7,40.2,24.1z"/>
			</g>
		</g>
		<g>
			<g>
				
					<image style="overflow:visible;" width="25" height="28" xlink:href="E16CE696.png"  transform="matrix(1 0 0 1 40.7054 8.2146)">
				</image>
			</g>
			<g>
				<path id="h_10_" class="st0" d="M58.5,27.2c0,0.8-0.6,1.4-1.4,1.4h-7.6c-0.8,0-1.4-0.6-1.4-1.4v-4.6c0-0.8,0.6-1.4,1.4-1.4h0.2
					v-1.8c0-2,1.6-3.7,3.6-3.7c2,0,3.6,1.6,3.6,3.7v1.8h0.2c0.7,0,1.4,0.6,1.4,1.4L58.5,27.2L58.5,27.2z M53.4,17.5
					c-1,0-1.8,0.8-1.8,1.8v1.8h3.6v-1.8C55.2,18.4,54.3,17.5,53.4,17.5z"/>
			</g>
		</g>
	</g>
</g>
</svg>
