<?xml version="1.0" encoding="utf-8"?>
<!-- Generator: Adobe Illustrator 22.0.1, SVG Export Plug-In . SVG Version: 6.00 Build 0)  -->
<svg version="1.1" id="Слой_1" xmlns="http://www.w3.org/2000/svg" xmlns:xlink="http://www.w3.org/1999/xlink" x="0px" y="0px"
	 viewBox="0 0 180 80" style="enable-background:new 0 0 180 80;" xml:space="preserve">
<style type="text/css">
	.st0{fill-rule:evenodd;clip-rule:evenodd;}
	.st1{fill-rule:evenodd;clip-rule:evenodd;fill:url(#SVGID_1_);}
	.st2{fill-rule:evenodd;clip-rule:evenodd;fill:url(#SVGID_2_);}
	.st3{fill:url(#SVGID_3_);}
	.st4{fill-rule:evenodd;clip-rule:evenodd;fill:url(#SVGID_4_);}
	.st5{fill-rule:evenodd;clip-rule:evenodd;fill:url(#SVGID_5_);}
	.st6{fill-rule:evenodd;clip-rule:evenodd;fill:url(#SVGID_6_);}
	.st7{fill-rule:evenodd;clip-rule:evenodd;fill:url(#SVGID_7_);}
	.st8{fill-rule:evenodd;clip-rule:evenodd;fill:url(#SVGID_8_);}
	.st9{fill-rule:evenodd;clip-rule:evenodd;fill:url(#SVGID_9_);}
	.st10{fill-rule:evenodd;clip-rule:evenodd;fill:url(#SVGID_10_);}
	.st11{fill-rule:evenodd;clip-rule:evenodd;fill:url(#SVGID_11_);}
	.st12{fill-rule:evenodd;clip-rule:evenodd;fill:url(#SVGID_12_);}
	.st13{fill-rule:evenodd;clip-rule:evenodd;fill:url(#SVGID_13_);}
	.st14{fill-rule:evenodd;clip-rule:evenodd;fill:url(#SVGID_14_);}
	.st15{fill-rule:evenodd;clip-rule:evenodd;fill:url(#SVGID_15_);}
	.st16{fill-rule:evenodd;clip-rule:evenodd;fill:url(#SVGID_16_);}
	.st17{fill-rule:evenodd;clip-rule:evenodd;fill:url(#SVGID_17_);}
	.st18{fill-rule:evenodd;clip-rule:evenodd;fill:url(#SVGID_18_);}
	.st19{fill-rule:evenodd;clip-rule:evenodd;fill:url(#SVGID_19_);}
	.st20{fill-rule:evenodd;clip-rule:evenodd;fill:url(#SVGID_20_);}
	.st21{fill-rule:evenodd;clip-rule:evenodd;fill:#FFFFFF;}
</style>
<g>
	<path class="st0" d="M66.8,43.9c-0.8-1.7-1.6-3.7-2.9-4.3c-0.5-2.5-0.8-2.8-1.6-3.5c0,0.7-0.5,1.1-1.1,0.5
		c-1.7-2.1-2.9-4.9-4.3-7.3c-0.8-1.4-1.6-2.8-2.5-4.1c-1.4-2.3-3.3-4.6-5.7-6c-2.8-1.6-5.6-2.8-8.6-3.7c-2.2-0.5-1.9-0.7-4.6-0.3
		c2.1,0.3,2.7,0.5,3.4,1.3c0.6,1-1,0.9-3.6,0.5c-8.8-5.1-17-8.2-23.7-6.5c-1.1,0-2.4,0.5-3.1,1.9c1.1-0.6,2.1-0.8,3-0.8
		c3.2,0.9,5.6,3.3,7.2,6.5c2.7,5.6,4,11,1.5,14.6c-0.6,0.5-1.3,1-1.8,2.2c0.4-0.2,0.7-0.5,1.2-0.5c7.8,0.3,18.1,7.9,18.7,14.2
		c-0.4,0.6-0.5,1.2-0.1,2.4c0.5-1.9,1-1.9,2.5-2.2c6.5-0.8,14.4,1.5,22.6,7.2c3.3,2.3,5.8,4.9,9.6,6.7c3.3,1.8,4.7,2.1,5.7,2.4
		c1.5,1.9,4.2,3.5,4.3,5.6c0.4-0.3,0.9-0.5,1.3-0.3c0.9,0.4,1.7,1.2,2.2,2.2c1,1,2.1,0.8,3,0c0.8-1,1.7-1.8,2.8-2.3
		c0.8,0,1.3,0.5,1.5,0.9c0.9-2.9,2.2-4.7,3.9-5.3c1.5-0.1,3.7-2.2,5.4-3.7c7.6-7.1,17.5-14.1,28.3-15.2c2.7-0.3,5.7-0.7,8.5,0.3
		c1.7,0.6,1,0.3,1.5,1c0.8,0.4,0.7,1.6,0.7,2c1.1-1.2,0.6-2.1,0.5-2.8c0.8-5.2,3.2-8.9,5.9-11.6c3.9-3.9,6.7-5,11.1-5.3
		c1.3-0.2,2.4,0.5,3.2,0.8c-0.4-1.3-2.2-2.4-2.8-2.3c-1.1-1.4-0.8-6.5,1.2-11.9c1.7-4.7,4-8.2,7.5-9.5c0.8-0.3,1.6-0.2,3.3,0.2
		c-2-1.7-2.7-1.6-4.8-1.3c-7.5,1.1-15.3,5.1-22.7,9.8c-0.5,0.3-1.2,0.1-0.9-0.5c0.1-0.3,0.5-0.8,2.1-1.2c-2.7-0.2-3.3,0.3-4.3,0.7
		c-1.6,0.8-3.9,1.7-5.8,2.5c-3.1,1.2-5.5,3-7.5,5.4c-2.4,3-4.7,6.1-7,9.2c-0.2,0.3-1.8,2.2-2.3,2.5c-1,1-1.8-0.1-2.3,0.2
		c-0.5,0.2-0.4,1.2-0.5,2c-0.2,0.2-0.4,0.5-0.7,0.8c-1.6,1.9-3,3.6-4.3,6c-2.1,4-3.2,5.6-6.3,8.5c-1.6,1.5-3.1,2.5-5,2.5
		c-0.2-0.9-0.5-1.6-0.4-2.2c0.6-3.4,0.1-2.9-2.1,0.1c-0.1-0.1-0.5,1.3-0.6,1.2c-2.8,0.2-5.2,1.1-6.4,1.9c-0.2,0.1-0.3,0.4-0.6,0.4
		c-0.4,0-0.9,0-1.3,0c-0.2,0-0.5,0-0.6-0.2c-1.2-0.5-2.9-2.1-5.8-1.8c-0.2,0-0.4,0-0.6,0.1c-0.6,0.1-1-1.5-1.6-2.7
		c-1.1-1.1-2.2-2.2-2.6-2.1c-0.9,0.3,0.1,2.2,0.3,3.1c0,0.2-0.7,2.2-0.9,2.2c-1-0.1-2-0.4-2.8-1.2C71.5,52.5,68.9,48.5,66.8,43.9z"
		/>
	<linearGradient id="SVGID_1_" gradientUnits="userSpaceOnUse" x1="152.4386" y1="-13.6864" x2="114.4313" y2="85.326">
		<stop  offset="0" style="stop-color:#A6724D"/>
		<stop  offset="0.1" style="stop-color:#855F36"/>
		<stop  offset="0.3" style="stop-color:#5E4A2E"/>
		<stop  offset="0.58" style="stop-color:#373027"/>
		<stop  offset="0.9" style="stop-color:#000000"/>
		<stop  offset="1" style="stop-color:#000000"/>
	</linearGradient>
	<path class="st1" d="M144.8,15c-1.2,0.3-2.5,0.6-3.6,1.1c-2.1,0.9-4.2,1.8-6.4,2.7c-3.5,1.5-6.1,4.3-8.4,7.5
		c-2.4,3.2-4.7,6.3-7,9.5c-0.3,0.8,2-1.2,3.2-2c0.6-0.5,1.3-1,1.9-1.5c2-1.6,4.1-3.3,6.4-5.3c2.9-2.6,5.8-4.9,8.4-7
		c1.6-1.2,3.1-2.4,4.6-3.4c0,0,0,0,0,0c5.7-3.7,11.6-6.8,17.5-8.6c1.8-0.5,3.6-0.7,5.3-0.9c1-0.2,2.6,0.2,3.4,0.5
		c-3.8-0.1-8,0.6-12.8,2.6c-7,2.9-15.4,8.2-26,17.4c-2.3,1.9-4.4,3.7-6.4,5.3c-1.4,1.1-2.9,2.2-4.2,3.2c-1.3,1.1-1.3,1.6-0.3,1.5
		c1.1-0.3,2.2-0.6,3.4-1c1.7-0.5,3.6-1.2,5.3-1.9l0,0c1.9-0.7,3.7-1.4,5.6-2c1.8-0.6,3.6-1.1,5.4-1.5c2.4-0.6,4.7-1,6.9-1.3
		c2.1-0.3,4.2-0.5,6.1-0.6c4.7-0.1,4.6,0.3,6.6,1.1c-3-0.7-6.2-0.5-9.3-0.2c-3.2,0.2-6.7,1-10.2,1.8c-1.7,0.4-3.5,0.7-5.3,1.3
		c-1.8,0.6-3.8,1.3-5.5,1.9v0c-1.8,0.7-3.6,1.4-5.3,1.9c-0.2,0.1-2.9,0.8-2.8,0.8c-2.1,0.6-3.1,0.9-1.2,1.3c0.8,0.2,1.4,0.3,2.2,0.4
		c1.3,0.3,2.7,0.6,4.1,0.9c4.2,1.1,8.2,2.5,11.7,4.3c0.7,0.4,2.6,1.6,3.2,3c-1.2-1.1-3.7-2.4-5.3-3.2c-3-1.4-6.3-2.6-9.7-3.5
		c-1.4-0.4-2.7-0.7-4-0.9c-0.2,0-0.3-0.1-0.5-0.1c-2.6-0.4-3.3-0.2-3.3-0.1c-0.3,0.1-0.6,0-0.9-0.1c-0.4,0.1-0.7,0.4-0.9,0.7
		c0-0.8,0.4-1.6,1.6-3c0.3-0.4,0-0.9-0.6-0.3c-0.6,0.6-1,1.2-1.5,2.1c-2.8,2.6-3.9,8.8-6.4,13.1c-2.5,4.4-5.5,7.9-8,10.2
		c-4,3.8-6,2.4-4.7,1.5c1.1-0.7,1.7-2.5,1.4-3.4c5.2-4.2,10.9-10.3,13.3-16.8c0.7-1.9,2.6-4.2,3.9-5.5c0-2.8,1-4.6,2.3-4.9
		c-0.6,0.8-0.6,2.3,0.7,1.5c0.5-0.3,2-2.2,2.3-2.5c2.2-3.2,4.6-6.2,7-9.2c2-2.5,4.5-4.2,7.5-5.4c2-0.8,4.2-1.6,5.9-2.4
		C141.9,15.3,145.1,15,144.8,15z"/>
	<radialGradient id="SVGID_2_" cx="88.0627" cy="67.3029" r="14.5239" gradientUnits="userSpaceOnUse">
		<stop  offset="0" style="stop-color:#000000"/>
		<stop  offset="0.49" style="stop-color:#272624"/>
		<stop  offset="0.69" style="stop-color:#3F3D39"/>
		<stop  offset="1" style="stop-color:#595651"/>
	</radialGradient>
	<path class="st2" d="M82.4,59.5c0.3-0.1-0.1-1.3-0.2-1.5c0.2,0.3,0.8,0.5,1,0.4c0.1,0.4,0.5,0.3,1,0.2c1,0.9,2,1.2,2.3,0.4
		c0.3,0,0.5-0.2,0.7-0.5c0.5,0.2,0.8-0.1,1.2-0.6c0,0.3,0.2,0.2,0.3,0.3c-0.1,0.2,0,0.4,0.2,0.6c0.1-0.1,0.2-0.2,0.3-0.3
		c0,0.5,0.3,0.6,1,0.3c-0.1,0.6,0.3,0.2,0.7-0.1c0.2,0.1,0.4,0.1,0.6,0c0.2,0.3,1.1,0,1.8-0.2c0.1,0.1-0.7,0.8-0.4,1
		c0.5,0.1,0.6-0.3,0.8-0.5c0,0.5-0.7,1.2-0.2,1.8c0.5,0.6,0.6,0.3,1-0.3c0.2,1.1,0.8,1.9,1.7,2.6c-2.1-0.3-1.6,0.3-0.4,1.4
		c0.6,0.5,1.6,0.8,2.3,1.2c-0.7,0-2.3,0.4-2.3,0.9c1,0.6,2.7,0.6,3.6,0.9c-1.2,0.2-3.6,0.2-2.9,1.1c-1.3-0.2-2.6,0.8-3.1,2
		c-0.3-0.2-0.6-0.4-1-0.2c0.3-0.3,0.5-0.9,0.2-1.1c-0.7-0.3-1.5-0.7-2-1.4c-0.6-0.6-1.1-1.3-1.6-2.1c-0.3-0.5-1.7-0.6-2,0
		c-0.4,0.5-0.8,0.9-1.3,1.4c-0.6,0.6-1.2,1.2-2,1.7c-0.6,0.4-0.2,0.9,0.1,1.4c-0.2-0.1-0.6,0-0.8,0.1c-0.4-1.7-1.9-3-3.8-2
		c0.1-0.8,0.4-1.6-1-1.2c-0.4,0.1-0.8,0.1-1.2,0.1c0.9-0.5,1.5-0.8,2.4-1.3c0.2-0.1-0.2-0.6-0.4-0.7c1,0,1.3-0.6,1.1-1.1
		c0.6-0.3,1-0.2,0.5-0.7c0.4-0.1,0.7-0.2,0.8-0.4c-0.1-0.4-0.2-0.8-0.6-1.2c0.3,0,0.7,0.1,1,0.1c0.1-0.3,0-0.6-0.2-0.9
		c0.5,0.1,0.9,0,0.1-1.4C81.9,59.8,82.1,59.7,82.4,59.5z"/>
	<linearGradient id="SVGID_3_" gradientUnits="userSpaceOnUse" x1="30.7463" y1="-3.105" x2="60.9757" y2="79.9497">
		<stop  offset="0" style="stop-color:#A6724D"/>
		<stop  offset="0.1" style="stop-color:#855F36"/>
		<stop  offset="0.3" style="stop-color:#5E4A2E"/>
		<stop  offset="0.58" style="stop-color:#373027"/>
		<stop  offset="0.9" style="stop-color:#000000"/>
		<stop  offset="1" style="stop-color:#000000"/>
	</linearGradient>
	<path class="st3" d="M44.8,45c3.4-1.8,7.1-3.4,10.8-4.7c0,0,2.1-0.7,3.3-1.2c0.8-0.3,0.7-0.6-0.1-1c-1.3-0.6-2.9-1-4.3-1.5
		C45,34,35,32.3,27.2,32.6c-0.7,0-1.6,0-2.3,0.1c-2.3,0.2-4.6,1-5.7,1.6c1.8-1.5,3.1-1.5,4-1.8c1.2-0.2,2.5-0.4,4-0.4
		c7.8-0.3,17.8,1.3,27.3,4l0,0c1.4,0.4,2.8,0.9,4.2,1.2c0.9,0.2,0.8-0.3,0.3-0.9l-2.6-2.6c-4.5-4.2-12.5-11.1-21.9-16.3
		c-3.9-2.2-8-4.3-12.4-5.6c-4-1.1-7.8-1.3-11.7-0.1c0.3-0.5,1.6-1,2-1.1c1.2-0.2,2.4-0.3,3.6-0.3c7.1,0,12.8,3.1,19.3,6.8
		c0.1,0.1,0.1,0.1,0.2,0.2c9,5.2,16.7,11.8,21.1,15.9l0,0c0.3,0.3,0.7,0.6,1,0.9c0.5,0.4,0.8,0.4,0.7,0.1c-0.1-0.3-0.3-0.8-0.5-1.1
		c-1.4-2.8-3-5.6-4.9-8.4c-2.4-3.7-4.9-5-8.1-6.4c-2.7-1.2-5.6-2.2-8.5-2.9c2,0,2.7,0,3.7,0.2c3,0.9,5.8,2.1,8.6,3.7
		c2.4,1.3,4.2,3.7,5.7,6c0.9,1.4,1.7,2.7,2.5,4.1c1.4,2.4,2.6,5.2,4.3,7.3c0.6,0.6,1.1,0.2,1.1-0.5c0-0.3-0.3-0.6-0.5-1
		c1.6,0.4,1.6,1.7,2.2,4.4c0.8,0.2,2.3,3.3,2.6,4.2c2.4,8.8,8.1,17,11.8,17.5c-0.5,0.6,1.2,2.2,2.4,2.6c0.4,0.1,0.2,0.9-0.1,1.1
		c-0.2,0.1-1.2,0.4-1.8,0c-0.7-0.1-4.4-2.4-4.9-2.8c-4.5-3.1-6.5-9.9-9-18.2c-1-3.2-1.9-4.5-3.4-5.1c-0.3-0.1-0.6-0.1-0.2,0.3
		c0.4,0.3,0.8,0.6,1.3,0.9c0.5,0.3,0.7,0.8,0.6,1.5c-0.4-0.6-0.8-0.6-1.2-0.7c-0.8-0.1-0.8-0.6-1.2-1c-0.2-0.2-0.7-0.2-1-0.1
		c-1.2,0.2-2.5,0.7-3.7,1c-3.8,1.2-7.6,2.9-11.1,4.7c-0.1,0-0.7,0.4-0.7,0.4c-1.4,0.8-3,1.6-4.3,2.6C41.2,47.2,42.9,46.2,44.8,45z"
		/>
	<linearGradient id="SVGID_4_" gradientUnits="userSpaceOnUse" x1="75.2317" y1="53.2284" x2="83.8378" y2="63.4848">
		<stop  offset="0" style="stop-color:#654F3A"/>
		<stop  offset="0.1" style="stop-color:#59462B"/>
		<stop  offset="0.3" style="stop-color:#403628"/>
		<stop  offset="0.58" style="stop-color:#1E1C1A"/>
		<stop  offset="0.9" style="stop-color:#000000"/>
		<stop  offset="1" style="stop-color:#000000"/>
	</linearGradient>
	<path class="st4" d="M82.8,57.5c-0.4-1-0.9-1.7-1.7-2.4c-0.8-0.8-1.2-1.7-1.8-2.9c-0.3-0.3-0.7-0.7-1.1-1.1c0.3,0.9,1,1.8,0.9,2.3
		c-0.1,0.8,0.3,1.7,1.3,2.4c0.4,0.3,1.1,0.5,0.4,1c1.7-0.2,1.5,1.9,1,2.3l-0.2-0.4l-0.3,0.8c-0.1-0.9-0.4-1.7-1.1-2.2
		c-0.7-0.8-1.6-1.5-2.6-1.8C76.7,54.9,77,54,77,53.2c-0.3,0.7-0.6,1.4-0.9,2.1l0,0c-0.3,1.1-0.3,1.8,0.6,2.7c-0.2,1,0.4,1.8,1.4,2.8
		c-0.3,1.7,0.2,2.8,1.3,2.7c0.3,0,0.5,0.3,0.8,0.4c0,0,0.1,0.1,0.2,0.3c0.3-0.1,0.4-0.2,0.1-0.5c0.2,0,0.3-0.1,0.5-0.1
		c0,0-0.1-0.1-0.2-0.1c-0.1-0.2-0.3-0.3-0.7-0.4c-0.5-0.3-1.1-0.4-1.3-1.4c-0.1-0.3,0-0.5,0.1-0.8c0.1-0.1,0.2-0.1,0.4,0
		c0.2,0.1,0.4,0.2,0.7,0.4c-0.1-0.2,0-0.3,0.2-0.2c0.1,0.1,0.4,0.6,0.8,1.1c0.3,0,0.6,0.1,0.9,0.1c0.1-0.3,0-0.6-0.2-0.9
		c0.5,0.1,0.9,0,0.1-1.4c0.3,0,0.5-0.1,0.8-0.3c0.1-0.1,0.1-0.3,0.1-0.6c0,0.1-0.1,0.1-0.1,0.2c0.1-0.4,0-0.8-0.2-1.2
		c0.1,0.1,0.2,0.2,0.3,0.2c0-0.2,0-0.5-0.1-0.6c-0.1-0.6-0.7-1.2-1.1-1.5c0.5,0.2,0.4,0.1,0.3-0.1c-0.1-0.1-0.2-0.2-0.3-0.3
		c0.5,0.3,0.9,0.9,1.1,1.5c0.1,0.3,0.3,0.4,0.4,0.7c-0.1,0.1-0.2,0.3-0.1,0.4c0.2,0.1,0.4,0.1,0.5,0c0,0.1,0,0.1,0.1,0.2
		C83.1,58.1,83,57.6,82.8,57.5L82.8,57.5z M80.6,60.9c-0.1-0.1-0.3-0.3-0.4-0.4c0.1,0.3-0.2,0.1-0.3,0c-0.6-0.4-1.1-0.7-1.6-0.7
		c-0.3-0.2-0.4-0.5-0.6-0.6c-0.5-0.7,0.2-0.8,0.9-0.4C79.9,59.6,80.4,60.3,80.6,60.9L80.6,60.9z M80.8,60c-0.7-0.7-1.1-1.6-2.4-2.2
		c-0.3-0.3-0.5-0.3-0.9-0.4c-1.1-0.5-0.4-1.6,0.8-1c1.5,1.1,2.1,1.9,2.4,2.7c0.1,0.1,0.3,0.5-0.1,0.2C80.7,59.7,80.7,59.8,80.8,60z"
		/>
	<path class="st0" d="M89.9,65.6c0.6-0.6,1-1,1.4-1.6c0.3-0.4,1.4-1.2,2.2-1.2c0.1,0.1,0,0.1,0.1,0.4c-0.4,0-0.7,0.1-0.9,0.4
		c0.3,0.4,0.5,0.8,0.4,1.3c-0.1,0.4-0.3,0.8-1,0.9c-0.5,0.1-0.9-0.1-1.4-0.6C90.5,65.3,90.1,65.5,89.9,65.6z"/>
	<path class="st0" d="M83.3,63.7c-0.1-0.3-0.3-0.6-0.5-0.5c0.1-0.1,0.2-0.3,0.2-0.5c0.4,0.3,0.9,0.8,1.5,1.7c0.5,0.8,0.8,1,1.2,1.5
		c-0.1,0-0.4-0.2-0.5-0.2c-0.7,0.3-1.3,0.6-2-0.1C82.7,65,82.8,64.4,83.3,63.7z"/>
	<linearGradient id="SVGID_5_" gradientUnits="userSpaceOnUse" x1="87.6781" y1="65.6921" x2="87.6781" y2="74.1908">
		<stop  offset="0" style="stop-color:#2D0F00"/>
		<stop  offset="0.25" style="stop-color:#470900"/>
		<stop  offset="0.68" style="stop-color:#5A2721"/>
		<stop  offset="1" style="stop-color:#69423F"/>
	</linearGradient>
	<path class="st5" d="M83.6,69.2c0.3-0.2,0.5-0.4,0.8-0.6c1-0.9,1.9-1.7,2.8-2.7c0.5-0.3,0.9-0.3,1.4,0c1,1.6,2.1,2.7,3.2,3.5
		c0,0.1-0.2,0.2-0.4,0.3c-1.1,0.5-2.3,1.2-3.2,2.4c-0.4,0.3-0.9,0.3-1.1,0.1c-1-1.5-2-1.9-3.1-2.5C83.8,69.4,83.6,69.3,83.6,69.2z"
		/>
	<linearGradient id="SVGID_6_" gradientUnits="userSpaceOnUse" x1="87.7354" y1="65.512" x2="87.7354" y2="67.4914">
		<stop  offset="0" style="stop-color:#331600"/>
		<stop  offset="0.66" style="stop-color:#4D1C0D"/>
		<stop  offset="0.77" style="stop-color:#552720"/>
		<stop  offset="1" style="stop-color:#49251D"/>
	</linearGradient>
	<path class="st6" d="M85.9,67.1c0.4-0.4,0.8-0.8,1.2-1.3c0.5-0.3,0.9-0.3,1.4,0c0.3,0.5,0.7,1,1,1.4C88.4,66.8,87.2,66.8,85.9,67.1
		z"/>
	<linearGradient id="SVGID_7_" gradientUnits="userSpaceOnUse" x1="86.7977" y1="67.0078" x2="87.1123" y2="68.4877">
		<stop  offset="0" style="stop-color:#272624"/>
		<stop  offset="1" style="stop-color:#7B8891"/>
	</linearGradient>
	<path class="st7" d="M86.6,67c0.3,0.5,0.3,1.1,0.1,1.7c0.4-0.5,0.8-1,0.6-1.8C87,66.9,86.8,66.9,86.6,67z"/>
	<linearGradient id="SVGID_8_" gradientUnits="userSpaceOnUse" x1="88.9267" y1="67.0814" x2="88.316" y2="68.391">
		<stop  offset="0" style="stop-color:#272624"/>
		<stop  offset="1" style="stop-color:#7B8891"/>
	</linearGradient>
	<path class="st8" d="M89,67c-0.3,0.5-0.2,1.1,0,1.7c-0.5-0.5-0.8-1.1-0.7-1.8C88.5,66.9,88.7,66.9,89,67z"/>
	<radialGradient id="SVGID_9_" cx="88.0729" cy="72.7893" r="5.8403" gradientUnits="userSpaceOnUse">
		<stop  offset="0" style="stop-color:#3F4749"/>
		<stop  offset="1" style="stop-color:#000000"/>
	</radialGradient>
	<path class="st9" d="M83.5,69.3c1,0.6,2.3,1.1,3,2.2c0.5,0.9,1.2,1.7,2.2,0.1c0.5-0.5,1.8-1.5,2.6-1.8c0.6-0.2,0.6-0.4,0.6-0.5
		c0.7,0,0.6,0.6,0.1,0.8c-1.2,0.6-1.9,1-3.2,2.6c-0.7,0.6-1.5,0.5-2,0.1c-0.8-1-1.8-2.1-2.7-2.7C83.6,69.8,83.4,69.6,83.5,69.3z"/>
	<linearGradient id="SVGID_10_" gradientUnits="userSpaceOnUse" x1="88.8059" y1="71.2633" x2="92.4321" y2="70.8181">
		<stop  offset="0" style="stop-color:#000000"/>
		<stop  offset="0.3206" style="stop-color:#080808"/>
		<stop  offset="0.5014" style="stop-color:#151514"/>
		<stop  offset="0.6475" style="stop-color:#242423"/>
		<stop  offset="0.7751" style="stop-color:#383837"/>
		<stop  offset="0.8893" style="stop-color:#484C4C"/>
		<stop  offset="0.9946" style="stop-color:#555E63"/>
		<stop  offset="1" style="stop-color:#565F64"/>
	</linearGradient>
	<path class="st10" d="M92.3,69.8c-0.1,0.1-0.2,0.2-0.3,0.3c-1.1,0.5-1.8,0.9-3,2.2C89.9,71,90.9,70,92.3,69.8z"/>
	<linearGradient id="SVGID_11_" gradientUnits="userSpaceOnUse" x1="89.4781" y1="59.4631" x2="92.3047" y2="64.5623">
		<stop  offset="0" style="stop-color:#595651"/>
		<stop  offset="0.39" style="stop-color:#3F3D39"/>
		<stop  offset="0.78" style="stop-color:#272624"/>
		<stop  offset="1" style="stop-color:#000000"/>
	</linearGradient>
	<path class="st11" d="M93.5,59.1L93.5,59.1c-0.4,0.8-0.5,1.5-0.2,1.8c0.5,0.6,0.6,0.3,1-0.3c0.1,0.4,0.2,0.8,0.4,1.1
		c-4.4,1.4-4.6,3.7-5.7,4.3l-0.1-0.2c-0.1-0.1-0.2-0.2-0.3-0.2C88.5,64.6,91.5,60.3,93.5,59.1z"/>
	<linearGradient id="SVGID_12_" gradientUnits="userSpaceOnUse" x1="86.823" y1="59.9335" x2="83.3202" y2="63.5607">
		<stop  offset="0" style="stop-color:#595651"/>
		<stop  offset="0.39" style="stop-color:#3F3D39"/>
		<stop  offset="0.78" style="stop-color:#272624"/>
		<stop  offset="1" style="stop-color:#000000"/>
	</linearGradient>
	<path class="st12" d="M82.4,59.5L82.4,59.5L82.4,59.5L82.4,59.5L82.4,59.5c0.4-0.3,0.4-0.6,0.1-1.1c0.1,0,0.1,0,0.2,0
		c1.7,2.2,3.8,5.6,4.4,7.1c-0.1,0.1-0.1,0.1-0.2,0.2c-0.2,0.2-0.3,0.4-0.5,0.6c-1.4-2.1-2.5-3.6-4.3-5.5c0-0.2-0.2-0.6-0.5-1.1
		C81.9,59.8,82.1,59.7,82.4,59.5z"/>
	<radialGradient id="SVGID_13_" cx="88.0135" cy="59.8581" r="7.9089" gradientUnits="userSpaceOnUse">
		<stop  offset="0" style="stop-color:#000000"/>
		<stop  offset="0.48" style="stop-color:#272624"/>
		<stop  offset="0.69" style="stop-color:#272624"/>
		<stop  offset="1" style="stop-color:#272624"/>
	</radialGradient>
	<path class="st13" d="M82.6,58.6c0,0,0-0.1-0.1-0.2c0.2,0.1,0.4,0.1,0.6-0.1c0.1,0.4,0.5,0.3,1,0.2c1,0.9,2,1.2,2.3,0.4
		c0.3,0,0.5-0.2,0.7-0.5c0.5,0.2,0.8-0.1,1.2-0.6c0,0.3,0.2,0.2,0.3,0.3c-0.1,0.2,0,0.4,0.2,0.6c0.1-0.1,0.2-0.2,0.3-0.3
		c0,0.5,0.3,0.6,1,0.3c-0.1,0.6,0.3,0.2,0.7-0.1c0.2,0.1,0.4,0.1,0.6,0c0.2,0.3,1.1,0,1.8-0.2c0.1,0.1-0.7,0.8-0.4,1
		c0.1,0,0.2,0,0.3,0c-0.9,0.9-1.6,1.9-2.4,2.9c-1,1.4,1.2-0.3,0.1,0.6c-0.8,0.6-1.5,1.6-2,2.5c-0.5-0.1-1-0.3-1.5,0
		c-0.5-0.8-1.1-1.9-1.9-2.6c1.4,1.1-0.2-1-0.6-1.6C84,60.4,83.3,59.5,82.6,58.6z"/>
	<path class="st0" d="M86.9,64.1c0.2-0.2,0.4-0.4,0.6-0.6c0.1-0.1,0.1-0.1,0.1,0c0,0.4,0,0.8,0,1.2c-0.2,0.2-0.3,0.2-0.6,0
		C86.8,64.5,86.8,64.3,86.9,64.1z"/>
	<path class="st0" d="M88.7,64.1c-0.2-0.2-0.4-0.5-0.5-0.7c-0.1-0.1-0.1-0.1-0.1,0c0,0.4-0.1,0.8,0,1.2c0.2,0.2,0.3,0.2,0.5,0
		C88.8,64.5,88.8,64.3,88.7,64.1z"/>
	<linearGradient id="SVGID_14_" gradientUnits="userSpaceOnUse" x1="101.3549" y1="53.0639" x2="92.5813" y2="65.5939">
		<stop  offset="0" style="stop-color:#654F3A"/>
		<stop  offset="0.1" style="stop-color:#59462B"/>
		<stop  offset="0.3" style="stop-color:#403628"/>
		<stop  offset="0.58" style="stop-color:#1E1C1A"/>
		<stop  offset="0.9" style="stop-color:#000000"/>
		<stop  offset="1" style="stop-color:#000000"/>
	</linearGradient>
	<path class="st14" d="M93.5,59.1c0.1,0,0.8-2.2,1.6-2.6c0.7-0.9,1.1-1.9,1.6-3.1c0.3-0.4,0.7-0.8,1-1.2c-0.3,0.9-0.8,1.9-0.8,2.5
		c0.1,0.8-0.2,1.8-1.1,2.6c-0.3,0.4-1.1,0.6-0.3,1c-1.7,0.1-1.3,2.1-0.8,2.5l0.2-0.4l0.4,0.8c0.1-1,0.3-1.8,0.9-2.4
		c0.7-0.9,1.5-1.7,2.4-2.2c0.9-0.8,0.5-1.6,0.4-2.5c0.4,0.6,0.7,1.3,1,2l0,0c0.4,1.1,0.4,1.8-0.4,2.8c0.3,0.9-0.2,1.9-1.2,3
		c0.4,1.6-0.1,2.8-1.1,2.8c-0.3,0-0.5,0.3-0.7,0.5c-0.2-0.1-0.4-0.2-0.6-0.4c0.1-0.2,0.3-0.4,0.7-0.5c0.5-0.4,1.1-0.5,1.2-1.5
		c0-0.3,0-0.5-0.1-0.8c-0.1-0.1-0.2-0.1-0.4,0c-0.2,0.2-0.4,0.3-0.6,0.5c0.1-0.2,0-0.3-0.2-0.1c-0.1,0.2-0.3,0.4-0.4,0.6
		c-0.1,0-0.2,0-0.3,0.1c-0.7-0.6-1.2-1.4-1.4-2.4c-0.4,0.7-0.5,0.9-1,0.3C92.8,60.3,93.5,59.6,93.5,59.1L93.5,59.1z M95.9,62.2
		c0.1-0.1,0.3-0.4,0.4-0.4c-0.1,0.3,0.2,0.1,0.3,0c0.5-0.4,1.1-0.9,1.5-1c0.2-0.2,0.4-0.5,0.5-0.7c0.5-0.7-0.3-0.8-0.9-0.3
		C96.6,60.8,96.1,61.5,95.9,62.2L95.9,62.2z M95.7,61.3c0.6-0.8,1-1.8,2.3-2.5c0.3-0.3,0.4-0.3,0.9-0.5c1.1-0.6,0.3-1.7-0.9-0.9
		c-1.4,1.3-2,2.2-2.2,3c0,0.1-0.2,0.5,0.1,0.2C95.7,61,95.7,61.2,95.7,61.3L95.7,61.3z M93.6,59.5c0.2,0.2,0.2,0.5,0.1,0.8
		c0.1,0.1,0.3,0.2,0.4,0.4c-0.2-0.6-0.2-1.1-0.1-1.6c0.1-0.6,0.6-1.3,1-1.7c-0.5,0.2-0.4,0.1-0.3,0c0.1-0.1,0.2-0.2,0.2-0.4
		c-0.4,0.4-0.8,1-1,1.7C93.8,59.1,93.7,59.2,93.6,59.5z"/>
	<linearGradient id="SVGID_15_" gradientUnits="userSpaceOnUse" x1="25.7609" y1="10.0149" x2="7.7298" y2="33.0937">
		<stop  offset="0" style="stop-color:#A6724D"/>
		<stop  offset="0.1" style="stop-color:#855F36"/>
		<stop  offset="0.3" style="stop-color:#5E4A2E"/>
		<stop  offset="0.58" style="stop-color:#373027"/>
		<stop  offset="0.9" style="stop-color:#000000"/>
		<stop  offset="1" style="stop-color:#000000"/>
	</linearGradient>
	<path class="st15" d="M11.6,11.8c3.1,0.9,5.5,3.3,7,6.4c2.7,5.6,4,11,1.5,14.6L20,32.9l0.1,0c1.3-0.6,2-1.4,2.6-3.6
		c0.7-2.1,0.6-3.7,0-5.8c-0.3-1.1-0.7-1.2-1.2-2.1c0.3-1,0.6-1.8-0.5-4.3c-2.2-2.9-4.3-4.3-6.4-5.2C13,11.5,12.4,11.7,11.6,11.8
		L11.6,11.8z"/>
	<linearGradient id="SVGID_16_" gradientUnits="userSpaceOnUse" x1="37.6111" y1="52.6676" x2="71.2124" y2="55.6073">
		<stop  offset="0" style="stop-color:#A6724D"/>
		<stop  offset="0.1" style="stop-color:#855F36"/>
		<stop  offset="0.3" style="stop-color:#5E4A2E"/>
		<stop  offset="0.58" style="stop-color:#373027"/>
		<stop  offset="0.9" style="stop-color:#000000"/>
		<stop  offset="1" style="stop-color:#000000"/>
	</linearGradient>
	<path class="st16" d="M40.2,49c0.7-0.5,1.9-0.7,2.7-0.9c1.9-0.3,3.9-0.5,5.9-0.3c2.8,0.3,5.7,0.6,8.3,1.6c1.3,0.5,1.9,2,3,2.9
		c0.7,0.6,1.5,1.2,2.4,1.7c0.5,0.3,1.3,0.1,1.7,0.6c0.6,0.6,0.7,1.6,1.2,2.3c0.6,0.7,1.4,1.2,2.1,1.9c0.6,0.6,2.1,1.9,2.9,2.7
		c-2.5-1.6-4.6-3.5-7.1-5.3c-8.2-5.7-16.1-8-22.6-7.2C40.4,48.9,40.3,49,40.2,49z"/>
	<linearGradient id="SVGID_17_" gradientUnits="userSpaceOnUse" x1="16.5461" y1="30.055" x2="40.2455" y2="46.6494">
		<stop  offset="0" style="stop-color:#A6724D"/>
		<stop  offset="0.1" style="stop-color:#855F36"/>
		<stop  offset="0.3" style="stop-color:#5E4A2E"/>
		<stop  offset="0.58" style="stop-color:#373027"/>
		<stop  offset="0.9" style="stop-color:#000000"/>
		<stop  offset="1" style="stop-color:#000000"/>
	</linearGradient>
	<path class="st17" d="M19.9,34.5c7.7,0.5,17.7,7.9,18.3,14.2c0,0,0,0.1-0.1,0.1l0.1,0c0.5,0.2,0.8-0.7,1-1.1
		c0.2-0.3,0.2-0.5,0.3-0.9c0.1-0.5-0.2-0.8-0.5-1.1c-0.1-0.2-0.1-0.5-0.1-1c-0.2-1.2-1.1-2-1.8-2.9c-2.4-3-5.1-4.7-8.1-6.2
		c-1.8-0.9-3.9-1.4-6.1-1.7C21.6,34,20.7,34.2,19.9,34.5z"/>
	<linearGradient id="SVGID_18_" gradientUnits="userSpaceOnUse" x1="170.3439" y1="6.7728" x2="153.714" y2="29.662">
		<stop  offset="0" style="stop-color:#A6724D"/>
		<stop  offset="0.1" style="stop-color:#855F36"/>
		<stop  offset="0.3" style="stop-color:#5E4A2E"/>
		<stop  offset="0.58" style="stop-color:#373027"/>
		<stop  offset="0.9" style="stop-color:#000000"/>
		<stop  offset="1" style="stop-color:#000000"/>
	</linearGradient>
	<path class="st18" d="M159.3,29c-0.9-1.7-0.5-6.5,1.4-11.6c1.6-4.4,3.8-7.9,6.9-9.3c-1.3,0.4-2.5,0.4-3.8,1.3
		c-0.8,0.2-1.1,0.7-1.6,1.4c-0.6,1-0.8,2.3-2,3.5c-0.8,0.8-1.8,1.9-2.7,4.3c-0.5,2-1.2,4.7-0.6,7.1C158.5,28.5,158.8,28.7,159.3,29z
		"/>
	<linearGradient id="SVGID_19_" gradientUnits="userSpaceOnUse" x1="162.5036" y1="28.3089" x2="135.8921" y2="46.9425">
		<stop  offset="0" style="stop-color:#A6724D"/>
		<stop  offset="0.1" style="stop-color:#855F36"/>
		<stop  offset="0.3" style="stop-color:#5E4A2E"/>
		<stop  offset="0.58" style="stop-color:#373027"/>
		<stop  offset="0.9" style="stop-color:#000000"/>
		<stop  offset="1" style="stop-color:#000000"/>
	</linearGradient>
	<path class="st19" d="M141.4,44.1c0.2-1.8,0.2-3.6,1.4-5.4c1.1-1.5,2.3-2.8,4.1-3.3c0.7-1.1,1-2.3,3-3.3c3.1-1.3,6-1.8,8.6-1.3l0,0
		c-4,0.3-6.7,1.6-10.4,5.2c-2.8,2.8-5.2,6.4-5.9,11.6l0,0C141.6,46.5,141.2,45.3,141.4,44.1z"/>
	<linearGradient id="SVGID_20_" gradientUnits="userSpaceOnUse" x1="146.8029" y1="42.7925" x2="96.3473" y2="59.1865">
		<stop  offset="0" style="stop-color:#A6724D"/>
		<stop  offset="0.1" style="stop-color:#855F36"/>
		<stop  offset="0.3" style="stop-color:#5E4A2E"/>
		<stop  offset="0.58" style="stop-color:#373027"/>
		<stop  offset="0.9" style="stop-color:#000000"/>
		<stop  offset="1" style="stop-color:#000000"/>
	</linearGradient>
	<path class="st20" d="M105.3,60.1c7.2-6.2,16.1-11.9,25.7-12.8c2.1-0.2,4.5-0.5,6.8-0.1l0,0c-1.2-0.3-2.5-0.6-3.7-0.8
		c-1-0.2-2-0.6-3-0.7c-1.1-0.1-2-0.2-3.2,0.1c-0.7,0.2-1.5,0.4-2.1,0.8c-0.5,0.3-0.7,1-1.3,1.1c-0.6,0-1.1-0.1-1.6-0.1
		c-1.1-0.1-2.4,0.4-3.6,0.6c-1.3,0.6-2.2,1.3-3.3,2.1c-0.6,0.7-0.3,0.8-1.1,1.2c-0.3-0.1-0.7,0.1-1.2,0.3c-0.3,0.3-0.9,0.4-1.1,1.1
		c-0.9,1.2-1.2,1.6-2.2,1.8C108.6,56.1,107,58.2,105.3,60.1z"/>
	<path class="st21" d="M84.5,64.8c0,0.1,0.1,0.3,0.3,0.4c0,0,0,0.1,0,0.1c0,0.2-0.1,0.3-0.3,0.3c-0.2,0-0.3-0.2-0.3-0.4
		c0-0.2,0.1-0.3,0.2-0.4C84.4,64.8,84.4,64.8,84.5,64.8z"/>
	<path class="st21" d="M92.2,64.6c0,0.1-0.1,0.3-0.3,0.4c0,0,0,0.1,0,0.1c0,0.2,0.1,0.3,0.3,0.3c0.2,0,0.3-0.2,0.3-0.4
		c0-0.2-0.1-0.3-0.2-0.4C92.2,64.6,92.2,64.6,92.2,64.6z"/>
</g>
</svg>
